<svg width="384" height="280" viewBox="0 0 384 280" fill="none" xmlns="http://www.w3.org/2000/svg">
<rect width="384" height="280" fill="context-fill"/>
<path d="M158.29 127.451C162.136 132.416 164.939 136.917 166.704 140.911C169.175 146.505 168.181 152.767 167.862 158.874C167.33 169.051 169.58 182.987 188.087 182.987C218.89 182.987 239.158 89.6662 204.553 64.9086C181.745 48.591 165.499 57.436 154.095 75.7638C141.871 95.4101 149.508 116.111 158.29 127.451Z" fill="#D898FA"/>
<path fill-rule="evenodd" clip-rule="evenodd" d="M166.652 79.6356C172.385 73.3614 181.295 69.8973 192.326 73.324C204.374 77.0667 210.343 89.0084 212.244 102.449C214.143 115.881 211.958 130.703 207.804 140.031C207.742 140.169 207.804 140.332 207.943 140.394C208.082 140.456 208.244 140.393 208.306 140.254C212.507 130.824 214.7 115.896 212.788 102.372C210.877 88.8569 204.845 76.6371 192.489 72.7988C181.245 69.306 172.116 72.84 166.246 79.2647C160.387 85.6761 157.775 94.9658 159.53 103C160.371 106.847 161.69 109.33 163.301 110.959C164.914 112.59 166.795 113.339 168.711 113.764C169.667 113.976 170.635 114.108 171.581 114.227C171.718 114.244 171.854 114.261 171.99 114.278C172.797 114.379 173.585 114.477 174.346 114.615C176.122 114.938 177.706 115.473 178.948 116.72C180.076 117.854 180.623 119.615 180.645 121.512C180.668 123.406 180.165 125.393 179.244 126.94C178.323 128.487 177.005 129.561 175.402 129.713C173.798 129.865 171.821 129.104 169.564 126.784C169.458 126.675 169.284 126.673 169.175 126.779C169.066 126.885 169.064 127.059 169.17 127.168C171.488 129.55 173.619 130.435 175.454 130.26C177.289 130.086 178.74 128.861 179.717 127.221C180.694 125.58 181.219 123.492 181.195 121.506C181.172 119.524 180.601 117.602 179.338 116.332C177.979 114.967 176.262 114.404 174.444 114.074C173.667 113.933 172.862 113.832 172.055 113.732C171.92 113.715 171.785 113.699 171.65 113.682C170.705 113.562 169.759 113.433 168.83 113.227C166.976 112.816 165.205 112.102 163.692 110.572C162.176 109.04 160.893 106.663 160.067 102.883C158.352 95.033 160.907 85.9231 166.652 79.6356Z" fill="white"/>
<path fill-rule="evenodd" clip-rule="evenodd" d="M173.841 101.974C171.138 103.815 168.875 107.31 167.643 112.703C167.609 112.851 167.701 112.998 167.849 113.032C167.998 113.066 168.145 112.973 168.179 112.825C169.392 107.517 171.599 104.166 174.151 102.428C176.695 100.696 179.615 100.542 182.329 101.691C187.769 103.996 192.41 111.579 191.216 122.222C190.843 125.543 189.409 127.507 188.045 129.159C187.914 129.317 187.783 129.473 187.653 129.628C186.441 131.074 185.321 132.409 185.321 134.339C185.321 134.574 185.433 134.796 185.576 134.998C185.723 135.205 185.928 135.424 186.169 135.658C186.41 135.893 186.697 136.152 187.012 136.436L187.024 136.447C187.337 136.729 187.679 137.038 188.04 137.379C189.501 138.76 191.259 140.667 192.492 143.39C193.07 144.667 192.825 146.699 191.913 148.675C191.007 150.64 189.479 152.466 187.612 153.335C185.767 154.194 183.558 154.137 181.206 152.284C178.836 150.417 176.319 146.719 173.944 140.286C173.892 140.144 173.733 140.071 173.591 140.123C173.448 140.176 173.376 140.334 173.428 140.477C175.817 146.947 178.378 150.756 180.866 152.717C183.372 154.691 185.802 154.784 187.844 153.834C189.863 152.893 191.47 150.95 192.412 148.906C193.35 146.873 193.669 144.656 192.993 143.164C191.719 140.348 189.903 138.383 188.418 136.979C188.052 136.634 187.706 136.321 187.394 136.04L187.381 136.028C187.064 135.742 186.785 135.49 186.552 135.264C186.318 135.037 186.142 134.845 186.025 134.68C185.905 134.511 185.871 134.403 185.871 134.339C185.871 132.62 186.855 131.443 188.087 129.968C188.212 129.818 188.34 129.666 188.469 129.51C189.859 127.826 191.372 125.761 191.762 122.284C192.975 111.475 188.272 103.612 182.543 101.185C179.672 99.9687 176.553 100.127 173.841 101.974Z" fill="white"/>
<path d="M151.507 161.263L152.377 165.048L165.435 202.294L129.506 226.859L73.4887 188.917L81.671 169.254L142.327 148.108L151.507 161.263Z" fill="#D898FA"/>
<path d="M81.6991 171.289C120.352 174.169 140.738 158.127 146.099 149.746L132.44 138.152L94.6338 150.196L81.6991 171.289Z" fill="white"/>
<path d="M140.098 201.039C143.158 199.971 152.688 189.325 157.07 184.136L161.06 198.237L146.953 215.831L112.114 209.668C120.167 207.236 137.037 202.106 140.098 201.039Z" fill="white"/>
<path fill-rule="evenodd" clip-rule="evenodd" d="M73.3169 188.905C75.1248 178.002 77.8246 156.239 77.8068 151.065C77.7842 144.485 87.4513 133.619 101.395 136.254C110.096 137.898 115.492 134.68 120.435 131.731C123.414 129.955 126.228 128.276 129.503 127.818C137.042 126.762 154.128 130.054 152.322 163.715C152.671 164.015 152.92 164.605 153.474 165.925C154.662 168.751 157.255 174.919 165.248 188.729C180.892 215.759 166.312 226.294 141.054 233.737C115.796 241.18 90.4176 211.815 87.7094 206.675C85.07 201.666 77.1996 193.102 73.3893 189.238C73.3667 189.215 73.3505 189.19 73.3402 189.163C73.3091 189.084 73.3029 188.99 73.3169 188.905ZM73.8543 188.933C77.0432 186.19 80.4408 182.312 84.0316 177.29C85.2053 175.649 86.2758 173.117 87.4648 170.304C90.0024 164.301 93.0795 157.022 98.8505 154.405C101.518 153.196 104.265 153.765 107.111 154.353C111.415 155.244 115.943 156.181 120.757 151.084C128.752 142.618 137.031 144.729 139.335 148.696C141.004 151.569 148.021 159.758 151.903 163.764C150.57 165.661 149.646 176.081 156.699 191.71C165.912 212.123 120.443 217.298 105.128 204.237C99.6978 199.606 80.7279 189.908 73.8543 188.933Z" fill="#8C3EB2"/>
<path fill-rule="evenodd" clip-rule="evenodd" d="M84.532 140.421C88.6336 137.254 94.4579 135.223 101.344 136.524C110.148 138.188 115.621 134.924 120.568 131.973L120.577 131.967C123.564 130.185 126.331 128.539 129.541 128.09C133.254 127.57 139.314 128.122 144.224 132.944C149.117 137.748 152.922 146.847 152.057 163.528C150.125 161.531 147.427 158.511 145 155.628C142.548 152.718 140.393 149.97 139.573 148.559C137.139 144.369 128.623 142.354 120.556 150.896C118.19 153.402 115.911 154.409 113.707 154.691C111.489 154.976 109.326 154.531 107.167 154.084L107.126 154.076C104.311 153.493 101.485 152.909 98.7364 154.155C95.7806 155.495 93.5327 158.021 91.7116 160.939C89.8922 163.855 88.4816 167.192 87.2155 170.187L87.2113 170.197C86.0174 173.021 84.9595 175.52 83.8077 177.13C80.2245 182.141 76.8413 186 73.6746 188.725C73.6494 188.747 73.6288 188.772 73.6133 188.8C74.5138 183.344 75.6289 175.255 76.5197 167.87C77.4177 160.426 78.0909 153.672 78.082 151.065C78.0711 147.889 80.4157 143.6 84.532 140.421ZM73.585 188.989C73.5865 188.996 73.5883 189.003 73.5904 189.01C73.5986 189.038 73.6109 189.064 73.6268 189.087C73.6154 189.076 73.6042 189.064 73.5929 189.053C73.5878 189.036 73.5847 189.013 73.585 188.989ZM73.696 189.158C73.731 189.182 73.7719 189.199 73.816 189.205C75.5004 189.444 77.9495 190.223 80.7761 191.34C83.5969 192.455 86.7749 193.9 89.9101 195.46C96.1892 198.584 102.262 202.154 104.95 204.446C108.831 207.756 114.6 209.894 120.898 210.931C127.202 211.969 134.065 211.908 140.161 210.796C146.25 209.686 151.612 207.519 154.875 204.311C156.51 202.704 157.623 200.83 158.027 198.696C158.431 196.561 158.121 194.19 156.95 191.597C153.435 183.807 151.911 177.324 151.43 172.56C151.19 170.178 151.21 168.229 151.371 166.763C151.535 165.283 151.837 164.336 152.128 163.922C152.13 163.92 152.132 163.917 152.133 163.914C152.136 163.918 152.14 163.921 152.143 163.923C152.275 164.037 152.405 164.219 152.575 164.56C152.745 164.9 152.942 165.367 153.221 166.031C154.413 168.867 157.011 175.046 165.01 188.866C172.81 202.343 173.02 211.607 168.263 218.421C163.477 225.277 153.607 229.751 140.976 233.473C128.47 237.158 115.903 231.738 106.086 224.701C101.183 221.187 96.9805 217.279 93.8357 213.93C90.6847 210.575 88.6119 207.798 87.9529 206.547C86.6175 204.013 83.9718 200.599 81.1977 197.349C78.4722 194.155 75.6062 191.101 73.696 189.158ZM84.1951 139.986C79.9975 143.227 77.52 147.661 77.5317 151.066C77.5405 153.632 76.8727 160.347 75.9733 167.804C75.0749 175.252 73.9485 183.414 73.0455 188.86C73.0247 188.985 73.032 189.13 73.084 189.263C73.1082 189.325 73.1451 189.382 73.1934 189.431C75.0947 191.359 78.0103 194.461 80.7792 197.705C83.5527 200.955 86.1619 204.328 87.466 206.803C88.161 208.122 90.2762 210.943 93.4346 214.306C96.5991 217.676 100.828 221.609 105.765 225.148C115.629 232.218 128.38 237.758 141.132 234.001C153.759 230.28 163.808 225.765 168.715 218.736C173.652 211.664 173.33 202.145 165.486 188.592C157.502 174.796 154.913 168.638 153.729 165.822L153.724 165.808C153.45 165.157 153.246 164.673 153.067 164.315C152.917 164.014 152.774 163.781 152.604 163.604C153.483 146.812 149.664 137.515 144.61 132.552C139.543 127.576 133.291 127.01 129.464 127.546C126.134 128.012 123.279 129.715 120.319 131.481L120.294 131.495C115.356 134.441 110.039 137.608 101.446 135.984C94.3886 134.65 88.4073 136.734 84.1951 139.986ZM98.9645 154.656C101.537 153.489 104.193 154.03 107.056 154.623L107.076 154.627C109.215 155.069 111.461 155.534 113.778 155.237C116.118 154.936 118.51 153.864 120.957 151.273C128.882 142.881 136.922 145.09 139.097 148.834C139.946 150.295 142.134 153.078 144.579 155.982C146.968 158.819 149.621 161.792 151.556 163.801C151.235 164.38 150.971 165.372 150.824 166.703C150.658 168.213 150.639 170.201 150.883 172.615C151.37 177.442 152.911 183.983 156.449 191.822C157.581 194.332 157.865 196.588 157.486 198.593C157.107 200.598 156.06 202.375 154.488 203.919C151.338 207.016 146.103 209.154 140.062 210.256C134.028 211.356 127.229 211.416 120.987 210.389C114.741 209.361 109.083 207.248 105.307 204.028C102.564 201.688 96.4368 198.094 90.1549 194.968C87.0095 193.403 83.8168 191.951 80.9779 190.829C78.4442 189.827 76.1771 189.082 74.4728 188.758C77.5555 186.023 80.8206 182.254 84.2556 177.45C85.447 175.784 86.5268 173.23 87.706 170.44L87.7183 170.411C88.9887 167.406 90.3843 164.106 92.1787 161.23C93.9732 158.355 96.1494 155.932 98.9645 154.656Z" fill="#D898FA"/>
<path d="M279.26 62.9004C260.943 62.9004 244.295 78.6326 237.256 87.6944C236.666 88.4547 236.848 89.5374 237.637 90.0892C246.531 96.3121 261.617 105.831 279.26 105.831C296.948 105.831 310.597 96.2644 318.637 90.0427C319.339 89.4992 319.513 88.5195 319.014 87.7852C312.86 78.7381 297.639 62.9004 279.26 62.9004Z" fill="white"/>
<path fill-rule="evenodd" clip-rule="evenodd" d="M254.185 72.1255C246.88 77.1728 240.978 83.3507 237.474 87.8631C236.983 88.4948 237.13 89.3991 237.794 89.8639C246.684 96.084 261.709 105.556 279.26 105.556C296.85 105.556 310.435 96.042 318.469 89.8252C319.06 89.3673 319.201 88.5494 318.786 87.9399C315.724 83.4377 310.401 77.2403 303.558 72.1711C296.714 67.1013 288.37 63.1754 279.26 63.1754C270.179 63.1754 261.492 67.0767 254.185 72.1255ZM253.872 71.673C261.229 66.5901 270.025 62.6254 279.26 62.6254C288.529 62.6254 296.986 66.6183 303.885 71.7291C310.786 76.8406 316.15 83.0857 319.241 87.6306C319.825 88.4896 319.618 89.6312 318.805 90.2602C310.759 96.4869 297.046 106.106 279.26 106.106C261.525 106.106 246.377 96.5402 237.479 90.3146C236.566 89.6758 236.349 88.4145 237.039 87.5258C240.573 82.9764 246.514 76.7572 253.872 71.673Z" fill="#D898FA"/>
<path d="M277.887 96.5447C289.774 96.5447 299.41 86.9343 299.41 75.0793C299.41 72.7566 299.04 70.52 298.356 68.425C292.648 65.1441 286.178 62.9004 279.26 62.9004C271.299 62.9004 263.653 65.8722 256.975 69.9765C256.575 71.6121 256.363 73.321 256.363 75.0793C256.363 86.9343 265.999 96.5447 277.887 96.5447Z" fill="#D898FA"/>
<path fill-rule="evenodd" clip-rule="evenodd" d="M279.108 35.6794C279.26 35.6794 279.383 35.8026 279.383 35.9544V57.2676C279.383 57.4195 279.26 57.5426 279.108 57.5426C278.956 57.5426 278.833 57.4195 278.833 57.2676V35.9544C278.833 35.8026 278.956 35.6794 279.108 35.6794Z" fill="white"/>
<path fill-rule="evenodd" clip-rule="evenodd" d="M226.859 60.1946C226.966 60.0874 227.141 60.0874 227.248 60.1946L242.36 75.2653C242.468 75.3726 242.468 75.5464 242.36 75.6537C242.252 75.7609 242.078 75.7609 241.971 75.6537L226.859 60.583C226.751 60.4758 226.751 60.3019 226.859 60.1946Z" fill="white"/>
<path fill-rule="evenodd" clip-rule="evenodd" d="M330.898 60.1946C330.79 60.0874 330.616 60.0874 330.508 60.1946L315.397 75.2653C315.289 75.3726 315.289 75.5464 315.397 75.6537C315.504 75.7609 315.679 75.7609 315.786 75.6537L330.898 60.583C331.005 60.4758 331.005 60.3019 330.898 60.1946Z" fill="white"/>
<path d="M271.336 219.866C271.336 242.378 253.035 260.627 230.46 260.627C207.885 260.627 189.584 242.378 189.584 219.866C189.584 197.354 207.885 179.105 230.46 179.105C253.035 179.105 271.336 197.354 271.336 219.866Z" fill="#D898FA"/>
<path fill-rule="evenodd" clip-rule="evenodd" d="M271.886 219.866C271.886 242.683 253.337 261.177 230.46 261.177C207.582 261.177 189.034 242.683 189.034 219.866C189.034 197.049 207.582 178.555 230.46 178.555C253.337 178.555 271.886 197.049 271.886 219.866ZM230.46 260.627C253.035 260.627 271.336 242.378 271.336 219.866C271.336 197.354 253.035 179.105 230.46 179.105C207.885 179.105 189.584 197.354 189.584 219.866C189.584 242.378 207.885 260.627 230.46 260.627Z" fill="#D898FA"/>
<mask id="mask0_219_16308" style="mask-type:alpha" maskUnits="userSpaceOnUse" x="189" y="179" width="83" height="82">
<path d="M271.336 219.866C271.336 242.378 253.035 260.627 230.46 260.627C207.885 260.627 189.584 242.378 189.584 219.866C189.584 197.354 207.885 179.105 230.46 179.105C253.035 179.105 271.336 197.354 271.336 219.866Z" fill="black"/>
</mask>
<g mask="url(#mask0_219_16308)">
<path d="M280.419 220.063C280.419 247.686 257.963 270.079 230.262 270.079C202.561 270.079 180.105 247.686 180.105 220.063C180.105 192.44 202.561 170.047 230.262 170.047C257.963 170.047 280.419 192.44 280.419 220.063Z" fill="#D898FA"/>
<path d="M280.419 220.063C280.419 247.686 257.963 270.079 230.262 270.079C202.561 270.079 180.105 247.686 180.105 220.063C180.105 192.44 202.561 170.047 230.262 170.047C257.963 170.047 280.419 192.44 280.419 220.063Z" fill="#D898FA"/>
<path d="M242.924 205.893C252.813 205.893 258.951 202.333 261.871 199.502C262.733 198.667 264.232 198.608 264.977 199.549L274.642 211.758C275.541 212.893 274.733 214.634 273.297 214.824C268.179 215.498 260.812 217.635 256.342 222.843C249.238 231.122 237.99 220.347 229.9 220.347C221.809 220.347 220.625 228.362 213.916 235.064C207.206 241.765 200.102 224.814 196.156 218.376C192.209 211.937 207.206 214.565 216.481 214.565C225.756 214.565 220.625 210.36 211.153 209.178C201.681 207.995 198.524 203.002 203.852 200.768C209.18 198.534 227.532 205.893 242.924 205.893Z" fill="#8C3EB2"/>
<path d="M220.389 248.813C217.525 248.813 212.756 251.83 209.446 254.298C208.392 255.083 208.646 256.685 209.868 257.166L231.079 265.524C231.445 265.669 231.85 265.684 232.226 265.568L260.096 256.948C261.343 256.563 261.714 255.007 260.705 254.178C257.732 251.733 253.214 248.813 249.417 248.813C243.295 248.813 236.976 252.16 231.645 252.16C226.313 252.16 224.931 248.813 220.389 248.813Z" fill="#8C3EB2"/>
<path d="M241.545 232.871C245.336 235.846 242.248 242.268 239.084 243.924C238.86 244.042 238.605 244.092 238.356 244.044C236.185 243.627 230.271 240.232 226.98 238.654C222.593 236.551 229.261 237.077 231.894 235.675C234.526 234.273 236.631 229.016 241.545 232.871Z" fill="#8C3EB2"/>
<path d="M230.065 190.132C223.01 192.016 212.808 190.269 206.027 188.485C204.482 188.079 204.395 186.029 205.87 185.416L229.529 175.586C229.877 175.441 230.256 175.413 230.621 175.507C241.147 178.235 260.039 183.226 255.538 182.452C249.812 181.468 241.123 187.178 230.065 190.132Z" fill="#8C3EB2"/>
</g>
<path d="M230.46 145.137C230.46 131.201 241.757 119.904 255.693 119.904H329.314C343.25 119.904 354.547 131.201 354.547 145.137V145.137C354.547 159.073 343.25 170.37 329.314 170.37H255.693C241.757 170.37 230.46 159.073 230.46 145.137V145.137Z" fill="#D898FA"/>
<path d="M285.92 156.847L286.866 152.554C288.709 152.554 290.407 152.542 291.959 152.518C293.511 152.469 294.869 152.409 296.033 152.336C297.222 152.263 298.204 152.154 298.98 152.009C299.78 151.839 300.326 151.621 300.617 151.354C301.102 150.966 301.442 150.359 301.636 149.535C301.83 148.686 301.927 147.473 301.927 145.897C301.927 145.048 301.866 144.284 301.745 143.605C301.624 142.926 301.43 142.344 301.163 141.859C300.92 141.349 300.629 140.973 300.29 140.731C299.95 140.464 299.562 140.331 299.126 140.331C298.689 140.331 298.277 140.488 297.889 140.804C297.501 141.119 297.185 141.543 296.943 142.077C296.725 142.586 296.615 143.132 296.615 143.714C296.615 144.102 296.7 144.442 296.87 144.733C297.064 145.024 297.367 145.254 297.78 145.424C298.192 145.569 298.713 145.642 299.344 145.642C299.95 145.642 300.569 145.569 301.199 145.424C301.854 145.278 302.436 145.084 302.945 144.842L303.091 148.516C302.703 148.783 302.254 149.013 301.745 149.207C301.26 149.401 300.738 149.547 300.181 149.644C299.623 149.741 299.065 149.789 298.507 149.789C297.222 149.789 296.13 149.62 295.233 149.28C294.336 148.941 293.632 148.395 293.123 147.643C292.638 146.867 292.395 145.86 292.395 144.624C292.395 143.605 292.565 142.598 292.905 141.604C293.244 140.585 293.729 139.664 294.36 138.839C294.99 137.99 295.73 137.323 296.579 136.838C297.428 136.329 298.374 136.074 299.417 136.074C300.945 136.074 302.206 136.535 303.2 137.457C304.194 138.354 304.934 139.567 305.419 141.095C305.904 142.623 306.147 144.284 306.147 146.079C306.147 147.243 306.05 148.359 305.856 149.426C305.686 150.493 305.431 151.439 305.092 152.263C304.752 153.088 304.328 153.767 303.819 154.301C303.358 154.81 302.594 155.234 301.527 155.574C300.484 155.913 299.186 156.168 297.634 156.338C296.082 156.532 294.311 156.665 292.323 156.738C290.358 156.811 288.224 156.847 285.92 156.847ZM285.92 156.847C283.47 156.847 281.372 156.665 279.626 156.301C277.904 155.962 276.485 155.453 275.37 154.773C274.254 154.094 273.429 153.27 272.896 152.3C272.362 151.33 272.096 150.214 272.096 148.953C272.096 148.249 272.156 147.534 272.277 146.806C272.399 146.054 272.556 145.327 272.75 144.624C272.944 143.896 273.126 143.229 273.296 142.623L277.152 143.569C277.055 143.981 276.946 144.442 276.825 144.951C276.704 145.436 276.594 145.921 276.497 146.406C276.425 146.891 276.388 147.34 276.388 147.752C276.388 148.771 276.704 149.644 277.334 150.372C277.989 151.099 279.08 151.645 280.608 152.009C282.136 152.372 284.222 152.554 286.866 152.554L287.593 155.683L285.92 156.847ZM299.089 132.546C298.434 132.546 297.877 132.327 297.416 131.891C296.955 131.43 296.725 130.872 296.725 130.217C296.725 129.562 296.955 129.005 297.416 128.544C297.877 128.059 298.434 127.816 299.089 127.816C299.72 127.816 300.265 128.059 300.726 128.544C301.187 129.005 301.417 129.562 301.417 130.217C301.417 130.872 301.187 131.43 300.726 131.891C300.265 132.327 299.72 132.546 299.089 132.546Z" fill="white"/>
<path d="M182.55 46.0718C143.053 44.8138 129.465 80.3323 138.762 112.336C138.965 113.033 138.713 113.803 138.124 114.226C115.576 130.397 96.2419 108.391 88.4924 93.4759C77.5036 72.3258 77.9269 38.5583 101.814 25.382C131.918 8.77654 174.059 22.4791 184.198 43.7736C184.734 44.8993 183.796 46.1115 182.55 46.0718Z" fill="#8C3EB2"/>
<path fill-rule="evenodd" clip-rule="evenodd" d="M150.561 20.099C166.169 24.1215 179.328 32.9058 184.446 43.6554C185.087 45.0017 183.954 46.3916 182.542 46.3466C162.89 45.7207 149.717 54.2368 142.598 66.8658C135.47 79.5108 134.394 96.3123 139.026 112.26C139.26 113.064 138.972 113.956 138.284 114.449C132.606 118.522 127.114 120.201 121.945 120.178C116.779 120.156 111.957 118.434 107.614 115.742C98.9357 110.362 92.1357 101.085 88.2483 93.6027C82.7286 82.9788 80.0763 69.1924 81.8022 56.402C83.5287 43.6078 89.6419 31.7822 101.681 25.1412C116.808 16.7973 134.944 16.0739 150.561 20.099ZM150.424 20.6316C134.91 16.6332 116.924 17.3612 101.947 25.6228C90.0991 32.1581 84.0571 43.8044 82.3473 56.4756C80.6369 69.1505 83.2674 82.823 88.7364 93.3491C92.5985 100.783 99.3406 109.966 107.904 115.275C112.182 117.927 116.905 119.607 121.948 119.628C126.987 119.65 132.368 118.016 137.963 114.002C138.455 113.65 138.669 113.002 138.498 112.413C133.834 96.3563 134.903 79.3964 142.119 66.5957C149.344 53.779 162.713 45.1648 182.559 45.7969C183.639 45.8313 184.38 44.7968 183.95 43.8918C178.929 33.3469 165.948 24.6327 150.424 20.6316Z" fill="#D898FA"/>
<path d="M124.117 63.1457C124.1 63.5382 124.139 63.9161 124.234 64.2793C124.314 64.5867 124.425 64.841 124.567 65.0425C124.702 65.216 124.83 65.3616 124.95 65.4792C125.091 65.5616 125.182 65.627 125.225 65.6756C125.577 65.8815 125.789 66.1241 125.862 66.4035C125.877 66.4594 125.885 66.6064 125.888 66.8446C125.878 67.2651 125.7 67.6107 125.352 67.8812C125.026 68.1164 124.472 68.3369 123.69 68.5427L113.764 71.1553C113.177 71.3097 112.691 71.3331 112.305 71.2258C111.947 71.111 111.724 70.8861 111.637 70.5508C111.593 70.3832 111.588 70.1905 111.62 69.9729C111.646 69.7274 111.714 69.5304 111.824 69.3819C111.955 69.1981 112.139 68.9856 112.374 68.7445C112.755 68.3755 113.045 68.0005 113.244 67.6197C113.444 67.2389 113.55 66.6736 113.563 65.9237L113.712 62.033L107.178 63.7527L106.671 66.4391C106.465 67.5977 106.439 68.4704 106.592 69.0571C106.68 69.3924 106.809 69.6571 106.979 69.8512C107.141 70.0173 107.363 70.1828 107.645 70.3475C107.899 70.5196 108.075 70.682 108.175 70.835C108.295 70.9526 108.36 71.1445 108.37 71.4107C108.368 71.8591 108.207 72.2149 107.887 72.4781C107.589 72.706 107.063 72.9192 106.309 73.1176L100.068 74.7601C99.4259 74.9292 98.9082 74.946 98.5148 74.8107C98.1142 74.6475 97.8629 74.3703 97.7609 73.9791C97.6443 73.5321 97.7207 73.1388 97.9902 72.7992C98.2245 72.4389 98.6227 72.0206 99.1847 71.5443C99.9131 70.9047 100.478 70.3233 100.878 69.7998C101.271 69.2485 101.555 68.5618 101.728 67.7399L105.151 50.3139C105.669 47.6099 106.557 45.5249 107.816 44.0591C109.095 42.5579 111.006 41.473 113.547 40.8042C116.395 40.0546 118.753 40.0607 120.623 40.8225C122.485 41.5564 123.686 42.9571 124.225 45.0245C124.451 45.8906 124.545 46.8214 124.506 47.8168L124.117 63.1457ZM113.876 57.5116L114.172 49.5516C114.196 49.187 114.161 48.823 114.066 48.4598C113.928 47.929 113.672 47.5783 113.299 47.4077C112.947 47.2018 112.506 47.1687 111.975 47.3083C111.305 47.4847 110.784 47.8309 110.411 48.347C110.039 48.8631 109.746 49.6865 109.534 50.8172L108.012 59.0549L113.876 57.5116Z" fill="white"/>
<path fill-rule="evenodd" clip-rule="evenodd" d="M307.557 231.755V179.105H308.107V231.755H307.557Z" fill="white"/>
<path fill-rule="evenodd" clip-rule="evenodd" d="M329.729 205.942L285.934 205.826L285.935 205.276L329.731 205.392L329.729 205.942Z" fill="white"/>
<path fill-rule="evenodd" clip-rule="evenodd" d="M316.708 214.79L298.392 196.525L298.781 196.137L317.097 214.402L316.708 214.79Z" fill="white"/>
<path fill-rule="evenodd" clip-rule="evenodd" d="M298.781 214.79L317.097 196.525L316.708 196.137L298.392 214.402L298.781 214.79Z" fill="white"/>
<path fill-rule="evenodd" clip-rule="evenodd" d="M50.6228 167.216V114.566H51.1728V167.216H50.6228Z" fill="white"/>
<path fill-rule="evenodd" clip-rule="evenodd" d="M72.7949 141.403L28.9993 141.287L29.0007 140.737L72.7964 140.853L72.7949 141.403Z" fill="white"/>
<path fill-rule="evenodd" clip-rule="evenodd" d="M59.7736 150.251L41.4573 131.986L41.8468 131.598L60.163 149.863L59.7736 150.251Z" fill="white"/>
<path fill-rule="evenodd" clip-rule="evenodd" d="M41.8468 150.251L60.163 131.986L59.7736 131.598L41.4573 149.863L41.8468 150.251Z" fill="white"/>
<path fill-rule="evenodd" clip-rule="evenodd" d="M56.0073 104.375C58.0229 104.375 59.6569 102.637 59.6569 100.493C59.6569 98.3493 58.0229 96.6113 56.0073 96.6113C53.9917 96.6113 52.3577 98.3493 52.3577 100.493C52.3577 102.637 53.9917 104.375 56.0073 104.375ZM56.0073 103.825C57.6877 103.825 59.1069 102.366 59.1069 100.493C59.1069 98.6206 57.6877 97.1613 56.0073 97.1613C54.3269 97.1613 52.9077 98.6206 52.9077 100.493C52.9077 102.366 54.3269 103.825 56.0073 103.825Z" fill="white"/>
<path d="M36.2993 114.566C36.2993 116.71 34.6653 118.448 32.6496 118.448C30.634 118.448 29 116.71 29 114.566C29 112.422 30.634 110.684 32.6496 110.684C34.6653 110.684 36.2993 112.422 36.2993 114.566Z" fill="white"/>
<path d="M328.513 225.689C330.529 225.689 332.163 223.951 332.163 221.807C332.163 219.663 330.529 217.925 328.513 217.925C326.498 217.925 324.864 219.663 324.864 221.807C324.864 223.951 326.498 225.689 328.513 225.689Z" fill="white"/>
<path fill-rule="evenodd" clip-rule="evenodd" d="M323.891 246.07C323.891 249.018 321.494 251.408 318.538 251.408C315.581 251.408 313.185 249.018 313.185 246.07C313.185 243.122 315.581 240.732 318.538 240.732C321.494 240.732 323.891 243.122 323.891 246.07ZM323.341 246.07C323.341 248.713 321.192 250.858 318.538 250.858C315.884 250.858 313.735 248.713 313.735 246.07C313.735 243.427 315.884 241.282 318.538 241.282C321.192 241.282 323.341 243.427 323.341 246.07Z" fill="white"/>
<path fill-rule="evenodd" clip-rule="evenodd" d="M72.6351 121.845V100.493H73.1851V121.845H72.6351Z" fill="white"/>
<path fill-rule="evenodd" clip-rule="evenodd" d="M81.554 111.451L64.0358 111.404L64.0372 110.854L81.5555 110.901L81.554 111.451Z" fill="white"/>
</svg>
