<?xml version="1.0" encoding="UTF-8" standalone="no"?>
<!-- Generator: Adobe Illustrator 23.0.5, SVG Export Plug-In . SVG Version: 6.00 Build 0)  -->

<svg
   version="1.1"
   id="Layer_1"
   x="0px"
   y="0px"
   viewBox="0 0 423.3 423.3"
   xml:space="preserve"
   width="423.29999"
   height="423.29999"
   xmlns="http://www.w3.org/2000/svg"
   xmlns:svg="http://www.w3.org/2000/svg"
   xmlns:rdf="http://www.w3.org/1999/02/22-rdf-syntax-ns#"
   xmlns:cc="http://creativecommons.org/ns#"
   xmlns:dc="http://purl.org/dc/elements/1.1/"><defs
   id="defs49">
	

		
		
		
	
			
			
		
			
			<defs
   id="defs24">
				<filter
   id="Adobe_OpacityMaskFilter_1_"
   filterUnits="userSpaceOnUse"
   x="-66"
   y="-0.89999998"
   width="183.3"
   height="318.20001">
					<feColorMatrix
   type="matrix"
   values="1 0 0 0 0  0 1 0 0 0  0 0 1 0 0  0 0 0 1 0"
   id="feColorMatrix21" />
				</filter>
			</defs>
			<mask
   maskUnits="userSpaceOnUse"
   x="-66"
   y="-0.9"
   width="183.3"
   height="318.2"
   id="mask-4_1_">
				<g
   class="st4"
   id="g27">
					<polygon
   id="path-3_1_"
   class="st2"
   points="117.3,-0.9 117.3,317.3 -66,317.3 -66,-0.9 " />
				</g>
			</mask>
			
		
			
			<defs
   id="defs36">
				<filter
   id="Adobe_OpacityMaskFilter_2_"
   filterUnits="userSpaceOnUse"
   x="-66"
   y="-1"
   width="366.29999"
   height="211.3">
					<feColorMatrix
   type="matrix"
   values="1 0 0 0 0  0 1 0 0 0  0 0 1 0 0  0 0 0 1 0"
   id="feColorMatrix33" />
				</filter>
			</defs>
			<mask
   maskUnits="userSpaceOnUse"
   x="-66"
   y="-1"
   width="366.3"
   height="211.3"
   id="mask-6_1_">
				<g
   class="st6"
   id="g39">
					<polygon
   id="path-5_1_"
   class="st2"
   points="300.3,-1 300.3,210.3 -66,210.3 -66,-1 " />
				</g>
			</mask>
			
		
			
				
				<defs
   id="defs11">
					<filter
   id="Adobe_OpacityMaskFilter"
   filterUnits="userSpaceOnUse"
   x="-65.199997"
   y="-0.89999998"
   width="183.5"
   height="318.20001">
						<feColorMatrix
   type="matrix"
   values="1 0 0 0 0  0 1 0 0 0  0 0 1 0 0  0 0 0 1 0"
   id="feColorMatrix8" />
					</filter>
				</defs>
				<mask
   maskUnits="userSpaceOnUse"
   x="-65.2"
   y="-0.9"
   width="183.5"
   height="318.2"
   id="mask-2_1_">
					<g
   class="st1"
   id="g14">
						<polygon
   id="path-1_1_"
   class="st2"
   points="-65.2,317.3 -65.2,-0.9 118.3,-0.9 118.3,317.3 " />
					</g>
				</mask>
				
			
			
				</defs>
<style
   type="text/css"
   id="style2">
	.st0{fill-rule:evenodd;clip-rule:evenodd;fill:#055FB4;}
	.st1{filter:url(#Adobe_OpacityMaskFilter);}
	.st2{fill-rule:evenodd;clip-rule:evenodd;fill:#FFFFFF;}
	.st3{mask:url(#mask-2_1_);fill-rule:evenodd;clip-rule:evenodd;fill:#055FB4;}
	.st4{filter:url(#Adobe_OpacityMaskFilter_1_);}
	.st5{mask:url(#mask-4_1_);fill-rule:evenodd;clip-rule:evenodd;fill:#093D70;}
	.st6{filter:url(#Adobe_OpacityMaskFilter_2_);}
	.st7{mask:url(#mask-6_1_);fill-rule:evenodd;clip-rule:evenodd;fill:#2E8AE8;}
</style>
<title
   id="title4">Big Logo HP</title>
<circle
   style="fill:#ffffff;stroke:none;stroke-width:2.66667"
   id="path1626"
   r="176.46054"
   cy="211.64999"
   cx="211.64999" /><path
   id="Fill-1"
   class="st0"
   d="m 327.99999,225.5 -41.8,23.9 0.2,58.5 42.5,-23.6 c 5.1,-2.8 8.3,-8.3 8.3,-14 v -39.7 c -0.2,-0.9 -0.2,-2.1 -0.9,-2.8 -1.9,-2.8 -5.6,-3.9 -8.3,-2.3" /><path
   id="Fill-3"
   class="st3"
   d="m 85.9,173.2 c 0,9.9 -5.3,19 -14,24.1 l -90.7,52.3 V 127.3 l 84,-48.6 c 2.1,-1.1 4.4,-1.8 6.9,-1.8 7.6,0 13.8,6.2 13.8,13.8 z M -65.2,104.9 V 317.3 L 118.3,211.5 V -0.9 Z"
   mask="url(#mask-2_1_)"
   transform="translate(276.49999,106)" /><path
   id="Fill-7"
   class="st5"
   d="M 71.7,158.3 3.3,118.8 v 14 l 68.4,39.5 v 73.9 L -22.2,192 v -30.1 l 64,37.2 v -13.8 l -64,-37.2 V 75 l 93.8,54.2 v 29.1 z M -66,-0.9 V 211.5 L 117.3,317.3 V 104.9 Z"
   mask="url(#mask-4_1_)"
   transform="translate(94.499994,106)" /><path
   id="Fill-10"
   class="st7"
   d="m 135,143.2 55.3,-31.1 -62.2,-17.2 c 1.1,-2.1 1.8,-4.4 1.8,-6.6 0,-11.5 -16.7,-21.1 -37.4,-21.1 -20.6,0 -37.4,9.4 -37.4,21.1 0,11.7 16.7,21.1 37.4,21.1 2.8,0 5.3,-0.2 8,-0.5 z M 117,210.3 -66,104.7 117,-1 300.3,104.7 Z"
   mask="url(#mask-6_1_)"
   transform="translate(94.499994,1)" />
<metadata
   id="metadata866"><rdf:RDF><cc:Work
       rdf:about=""><dc:title>Big Logo HP</dc:title></cc:Work></rdf:RDF></metadata></svg>
