<!-- tor-browser#42319: Make sure all the about wordmark SVGs (release, alpha,
     nightly) have the same size. This will likely add some padding to some
     channels, so the background-position for RTL languages should be ajusted
     accordingly in the respective aboutDialog.css. -->
<svg width="416" height="45" viewBox="0 0 416 45" fill="none" xmlns="http://www.w3.org/2000/svg">
<path d="M303.369 4.05329C303.845 4.53015 304.402 4.76858 305.038 4.76858C305.705 4.76858 306.262 4.53015 306.707 4.05329C307.183 3.57644 307.422 3.0201 307.422 2.38429C307.422 1.71669 307.183 1.16035 306.707 0.715287C306.262 0.238429 305.705 0 305.038 0C304.402 0 303.845 0.238429 303.369 0.715287C302.892 1.16035 302.653 1.71669 302.653 2.38429C302.653 3.0201 302.892 3.57644 303.369 4.05329Z" fill="white"/>
<path d="M340.961 34.1431V0.143055H344.776V13.7676C345.425 12.6907 346.236 11.821 347.208 11.1585C348.607 10.2048 350.292 9.72791 352.263 9.72791C355.124 9.72791 357.397 10.618 359.082 12.3983C360.767 14.1786 361.593 16.8808 361.561 20.5049V34.1431H357.746V21.9355C357.746 19.583 357.46 17.7868 356.888 16.547C356.348 15.3072 355.601 14.4647 354.647 14.0196C353.693 13.5428 352.612 13.3043 351.404 13.3043C349.306 13.3043 347.669 14.0514 346.493 15.5456C345.348 17.0079 344.776 19.0902 344.776 21.7924V34.1431H340.961Z" fill="white"/>
<path d="M303.082 34.1431L303.178 10.3001H306.993L306.897 34.1431H303.082Z" fill="white"/>
<path d="M292.442 34.1431L272.509 7.19473V34.1431H268.456V0.762972H272.557L292.442 27.6056V0.762972H296.495V34.1431H292.442Z" fill="white"/>
<path fill-rule="evenodd" clip-rule="evenodd" d="M322.988 44.2525C321.462 44.2525 320.063 44.0935 318.791 43.7756C317.551 43.4895 316.486 43.1557 315.596 42.7742C314.738 42.4245 314.118 42.1225 313.737 41.8682L315.167 38.7686C315.58 38.9911 316.169 39.2613 316.931 39.5792C317.694 39.9289 318.585 40.215 319.602 40.4376C320.651 40.6919 321.764 40.8191 322.94 40.8191C324.466 40.8191 325.833 40.5012 327.041 39.8654C328.281 39.2613 329.234 38.2917 329.902 36.9565C330.601 35.6531 330.951 33.9682 330.951 31.9018V29.364C330.196 30.6211 329.242 31.6419 328.09 32.4264C326.596 33.4437 324.847 33.9523 322.845 33.9523C320.715 33.9523 318.839 33.4437 317.218 32.4264C315.596 31.4091 314.325 29.9944 313.403 28.1823C312.513 26.3385 312.068 24.2403 312.068 21.8878C312.068 19.4717 312.513 17.3576 313.403 15.5456C314.325 13.7017 315.596 12.2712 317.218 11.2539C318.839 10.2366 320.715 9.72791 322.845 9.72791C324.847 9.72791 326.596 10.2366 328.09 11.2539C329.242 12.0383 330.196 13.0686 330.951 14.3446V10.3001H334.766V31.8541C334.766 34.5881 334.257 36.877 333.24 38.7209C332.223 40.5647 330.824 41.9476 329.044 42.8696C327.263 43.7915 325.245 44.2525 322.988 44.2525ZM323.751 30.662C325.149 30.662 326.389 30.2805 327.47 29.5175C328.551 28.7546 329.393 27.7214 329.997 26.418C330.601 25.0827 330.903 23.5409 330.903 21.7924C330.903 20.1075 330.586 18.6134 329.95 17.31C329.346 15.9748 328.503 14.9416 327.422 14.2104C326.373 13.4474 325.133 13.0659 323.703 13.0659C322.209 13.0659 320.874 13.4474 319.697 14.2104C318.553 14.9416 317.647 15.9748 316.979 17.31C316.343 18.6134 316.025 20.1075 316.025 21.7924C316.025 23.5409 316.359 25.0827 317.027 26.418C317.694 27.7214 318.6 28.7546 319.745 29.5175C320.921 30.2805 322.256 30.662 323.751 30.662Z" fill="white"/>
<path d="M384.62 0.762972V34.1431H388.435V0.762972H384.62Z" fill="white"/>
<path d="M394.668 43.871C395.463 44.1253 396.162 44.2525 396.767 44.2525C398.197 44.2525 399.373 43.9822 400.295 43.4418C401.217 42.9014 401.996 42.1225 402.632 41.1052C403.299 40.0879 403.935 38.8798 404.539 37.4811L415.984 10.3001H411.883L403.855 29.6545L395.765 10.3001H391.712L401.997 34.1076L400.343 38.0533C399.961 38.9116 399.485 39.5633 398.912 40.0084C398.372 40.4853 397.673 40.7237 396.814 40.7237C396.496 40.7237 396.051 40.6442 395.479 40.4853C394.939 40.3263 394.303 40.0879 393.572 39.77L392.141 42.9649C393.031 43.3464 393.874 43.6484 394.668 43.871Z" fill="white"/>
<path d="M373.328 10.3292H379.664V13.7155H373.317V27.4477C373.317 28.6557 373.635 29.5936 374.271 30.2612C374.938 30.897 375.86 31.2149 377.036 31.2149C377.418 31.2149 377.783 31.1672 378.133 31.0718C378.515 30.9447 379.007 30.6585 379.611 30.2135L381.09 33.3131C380.263 33.8535 379.516 34.2191 378.848 34.4098C378.181 34.6324 377.497 34.7436 376.798 34.7436C374.477 34.7436 372.681 34.1396 371.409 32.9316C370.138 31.7235 369.502 30.0227 369.502 27.8292V13.7155H364.064V10.3292H364.678C367.359 10.3292 369.528 8.14673 369.511 5.46568L369.502 3.93667V2.88952H373.328V10.3292Z" fill="white"/>
<path fill-rule="evenodd" clip-rule="evenodd" d="M99.1943 16.8102C100.019 16.2473 100.72 15.6031 101.297 14.8777C102.41 13.4789 102.966 11.9052 102.966 10.1568C102.966 8.09037 102.489 6.35779 101.536 4.959C100.614 3.56022 99.2945 2.51113 97.5778 1.81174C95.8929 1.08055 93.906 0.714963 91.6171 0.714963L85.0829 0.777784V0.762649H79.1698V34.1427H93.143C95.3684 34.1427 97.2917 33.7771 98.913 33.046C100.566 32.3148 101.838 31.2498 102.728 29.851C103.65 28.4204 104.111 26.7037 104.111 24.7009C104.111 22.412 103.475 20.5523 102.203 19.1217C101.413 18.1899 100.41 17.4194 99.1943 16.8102ZM92.5708 28.7542H85.0829V19.6306L86.3902 19.5509H91.9509C93.8265 19.5191 95.2889 19.9324 96.338 20.7907C97.4189 21.6173 97.9593 22.7617 97.9593 24.2241C97.9593 25.6229 97.4824 26.7355 96.5287 27.5621C95.575 28.3569 94.2557 28.7542 92.5708 28.7542ZM85.0829 5.6266H91.331C93.0477 5.59481 94.3829 5.9763 95.3366 6.77107C96.3221 7.56583 96.8148 8.6785 96.8148 10.1091C96.8148 11.5079 96.3698 12.6046 95.4797 13.3994C94.6213 14.1624 93.4451 14.5439 91.9509 14.5439H85.0829V5.6266Z" fill="white"/>
<path d="M11.3982 6.2942V34.1427H17.4066V6.2942H28.8525V0.762649H0V6.2942H11.3982Z" fill="white"/>
<path fill-rule="evenodd" clip-rule="evenodd" d="M29.0711 33.1413C30.9468 34.1904 33.0926 34.715 35.5087 34.715C37.893 34.715 40.0071 34.1904 41.8509 33.1413C43.6948 32.0604 45.1412 30.5822 46.1903 28.7065C47.2394 26.8309 47.764 24.6691 47.764 22.2213C47.764 19.7734 47.2394 17.6116 46.1903 15.736C45.1412 13.8604 43.6789 12.398 41.8032 11.3489C39.9594 10.268 37.8294 9.72759 35.4133 9.72759C33.029 9.72759 30.8991 10.268 29.0234 11.3489C27.1796 12.398 25.7331 13.8604 24.684 15.736C23.6349 17.6116 23.1104 19.7734 23.1104 22.2213C23.1104 24.6691 23.6349 26.8309 24.684 28.7065C25.7649 30.5822 27.2273 32.0604 29.0711 33.1413ZM38.799 28.4681C37.8453 29.0721 36.7485 29.3741 35.5087 29.3741C34.2689 29.3741 33.1562 29.0721 32.1707 28.4681C31.1852 27.8323 30.4063 26.9899 29.8341 25.9408C29.2937 24.8599 29.0234 23.6201 29.0234 22.2213C29.0234 20.8225 29.2937 19.5827 29.8341 18.5018C30.4063 17.4209 31.1693 16.5784 32.123 15.9744C33.0767 15.3704 34.1735 15.0684 35.4133 15.0684C36.6532 15.0684 37.7499 15.3863 38.7037 16.0221C39.6892 16.6261 40.4521 17.4686 40.9926 18.5495C41.5648 19.5986 41.8509 20.8225 41.8509 22.2213C41.8509 23.6201 41.5807 24.8599 41.0403 25.9408C40.4998 26.9899 39.7527 27.8323 38.799 28.4681Z" fill="white"/>
<path d="M57.4468 34.1427V21.506C57.4468 20.139 57.8442 19.0422 58.6389 18.2157C59.4655 17.3573 60.5146 16.7374 61.7862 16.3559C63.0896 15.9744 64.4566 15.7837 65.8872 15.7837V10.2044C64.1705 10.2044 62.5333 10.6177 60.9755 11.4443C59.5835 12.1829 58.4073 13.2643 57.4468 14.6884V10.2998H51.6768V34.1427H57.4468Z" fill="white"/>
<path d="M114.044 34.1427V21.506C114.044 20.139 114.441 19.0422 115.236 18.2157C116.063 17.3573 117.112 16.7374 118.383 16.3559C119.687 15.9744 121.054 15.7837 122.484 15.7837V10.2044C120.768 10.2044 119.13 10.6177 117.573 11.4443C116.181 12.1829 115.004 13.2643 114.044 14.6884V10.2998H108.274V34.1427H114.044Z" fill="white"/>
<path fill-rule="evenodd" clip-rule="evenodd" d="M130.119 33.1413C131.994 34.1904 134.14 34.715 136.556 34.715C138.94 34.715 141.055 34.1904 142.898 33.1413C144.742 32.0604 146.189 30.5822 147.238 28.7065C148.287 26.8309 148.811 24.6691 148.811 22.2213C148.811 19.7734 148.287 17.6116 147.238 15.736C146.189 13.8604 144.726 12.398 142.851 11.3489C141.007 10.268 138.877 9.72759 136.461 9.72759C134.076 9.72759 131.947 10.268 130.071 11.3489C128.227 12.398 126.781 13.8604 125.731 15.736C124.682 17.6116 124.158 19.7734 124.158 22.2213C124.158 24.6691 124.682 26.8309 125.731 28.7065C126.812 30.5822 128.275 32.0604 130.119 33.1413ZM139.846 28.4681C138.893 29.0721 137.796 29.3741 136.556 29.3741C135.316 29.3741 134.204 29.0721 133.218 28.4681C132.233 27.8323 131.454 26.9899 130.882 25.9408C130.341 24.8599 130.071 23.6201 130.071 22.2213C130.071 20.8225 130.341 19.5827 130.882 18.5018C131.454 17.4209 132.217 16.5784 133.17 15.9744C134.124 15.3704 135.221 15.0684 136.461 15.0684C137.701 15.0684 138.797 15.3863 139.751 16.0221C140.737 16.6261 141.5 17.4686 142.04 18.5495C142.612 19.5986 142.898 20.8225 142.898 22.2213C142.898 23.6201 142.628 24.8599 142.088 25.9408C141.547 26.9899 140.8 27.8323 139.846 28.4681Z" fill="white"/>
<path d="M176.559 26.1951L181.836 10.2998H187.749L179.643 34.1427H173.92L168.579 17.3477L163.239 34.1427H157.469L149.362 10.2998H155.275L160.481 26.4658L165.718 10.2998H171.441L176.559 26.1951Z" fill="white"/>
<path d="M194.088 33.9997C195.423 34.4765 196.869 34.715 198.427 34.715C200.239 34.715 201.845 34.4288 203.243 33.8566C204.674 33.2526 205.803 32.4101 206.629 31.3293C207.456 30.2166 207.869 28.945 207.869 27.5144C207.869 26.5289 207.646 25.5275 207.201 24.5102C206.756 23.4929 206.057 22.571 205.103 21.7444C204.149 20.9179 202.894 20.3138 201.336 19.9324L198.379 19.1694C197.426 18.9468 196.71 18.6766 196.234 18.3587C195.757 18.0408 195.518 17.6434 195.518 17.1666C195.518 16.4354 195.773 15.8632 196.281 15.4499C196.822 15.0366 197.585 14.83 198.57 14.83C199.524 14.83 200.43 15.0366 201.288 15.4499C202.178 15.8632 202.751 16.4354 203.005 17.1666L207.869 14.973C207.487 13.9239 206.852 13.0179 205.962 12.2549C205.071 11.4602 203.991 10.8403 202.719 10.3952C201.447 9.95012 200.08 9.72759 198.618 9.72759C195.725 9.72759 193.5 10.3952 191.942 11.7304C190.384 13.0338 189.605 14.8935 189.605 17.3096C189.605 18.9627 190.257 20.441 191.56 21.7444C192.864 23.016 194.644 23.9539 196.901 24.5579L199.095 25.1301C200.017 25.3526 200.732 25.6388 201.241 25.9885C201.781 26.3382 202.051 26.8309 202.051 27.4667C202.051 28.1343 201.718 28.6589 201.05 29.0403C200.382 29.39 199.492 29.5649 198.379 29.5649C197.235 29.5649 196.218 29.2788 195.328 28.7065C194.469 28.1025 193.802 27.4031 193.325 26.6084L188.318 28.8496C188.858 30.0576 189.621 31.1067 190.607 31.9969C191.592 32.8552 192.753 33.5228 194.088 33.9997Z" fill="white"/>
<path fill-rule="evenodd" clip-rule="evenodd" d="M222.071 34.715C219.718 34.715 217.636 34.1904 215.824 33.1413C214.044 32.0604 212.629 30.5822 211.58 28.7065C210.563 26.8309 210.054 24.6691 210.054 22.2213C210.054 19.7734 210.578 17.6116 211.628 15.736C212.677 13.8604 214.123 12.398 215.967 11.3489C217.811 10.268 219.925 9.72759 222.309 9.72759C224.407 9.72759 226.331 10.2839 228.079 11.3966C229.828 12.4775 231.211 14.067 232.228 16.1652C233.277 18.2316 233.801 20.743 233.801 23.6995H216.053C216.181 24.6481 216.455 25.4746 216.873 26.1792C217.477 27.1965 218.288 27.9754 219.305 28.5158C220.322 29.0562 221.435 29.3265 222.643 29.3265C223.978 29.3265 225.059 29.0403 225.886 28.4681C226.744 27.8641 227.412 27.1011 227.888 26.1792L233.277 28.3251C232.641 29.6603 231.783 30.8047 230.702 31.7584C229.653 32.7122 228.413 33.4433 226.982 33.952C225.552 34.4606 223.915 34.715 222.071 34.715ZM227.269 18.6448C227.326 18.7978 227.38 18.9568 227.43 19.1217H216.358C216.45 18.7992 216.558 18.4972 216.682 18.2157C217.159 17.103 217.859 16.2764 218.78 15.736C219.702 15.1638 220.815 14.8777 222.118 14.8777C223.326 14.8777 224.36 15.1797 225.218 15.7837C226.108 16.3877 226.792 17.3414 227.269 18.6448Z" fill="white"/>
<path d="M242.993 21.506V34.1427H237.223V10.2998H242.993V14.6884C243.954 13.2643 245.13 12.1829 246.522 11.4443C248.08 10.6177 249.717 10.2044 251.434 10.2044V15.7837C250.003 15.7837 248.636 15.9744 247.333 16.3559C246.061 16.7374 245.012 17.3573 244.185 18.2157C243.391 19.0422 242.993 20.139 242.993 21.506Z" fill="white"/>
</svg>
