<svg width="16" height="16" viewBox="0 0 16 16" fill="none" xmlns="http://www.w3.org/2000/svg">
<!-- NOTE: We fill with #000000 since this image is used as a CSS mask-image. -->
<path fill-rule="evenodd" d="M5.27778 3.13889C5.27778 4.10273 4.64025 4.91767 3.76389 5.18502V11.9028C3.76389 12.9 4.57226 13.7083 5.56944 13.7083C6.56662 13.7083 7.375 12.9 7.375 11.9028V9.85169C7.3881 9.85568 7.40125 9.85955 7.41445 9.8633C6.51783 9.60866 5.86111 8.7838 5.86111 7.80556C5.86111 6.84172 6.49864 6.02678 7.375 5.75943L7.375 4.09722C7.375 2.40969 8.74302 1.04167 10.4306 1.04167C12.1181 1.04167 13.4861 2.40969 13.4861 4.09722V10.815C14.3625 11.0823 15 11.8973 15 12.8611C15 14.0424 14.0424 15 12.8611 15C11.6798 15 10.7222 14.0424 10.7222 12.8611C10.7222 11.8973 11.3597 11.0823 12.2361 10.815V4.09722C12.2361 3.10004 11.4277 2.29167 10.4306 2.29167C9.43337 2.29167 8.625 3.10004 8.625 4.09722V5.75943C9.50137 6.02678 10.1389 6.84172 10.1389 7.80556C10.1389 8.7694 9.50137 9.58433 8.625 9.85168V11.9028C8.625 13.5903 7.25698 14.9583 5.56944 14.9583C3.88191 14.9583 2.51389 13.5903 2.51389 11.9028V5.18502C1.63752 4.91766 1 4.10273 1 3.13889C1 1.95761 1.95761 1 3.13889 1C4.32016 1 5.27778 1.95761 5.27778 3.13889ZM4.02778 3.13889C4.02778 3.62981 3.62981 4.02778 3.13889 4.02778C2.64797 4.02778 2.25 3.62981 2.25 3.13889C2.25 2.64797 2.64797 2.25 3.13889 2.25C3.62981 2.25 4.02778 2.64797 4.02778 3.13889ZM8.88889 7.80556C8.88889 8.29648 8.49092 8.69444 8 8.69444C7.50908 8.69444 7.11111 8.29648 7.11111 7.80556C7.11111 7.31464 7.50908 6.91667 8 6.91667C8.49092 6.91667 8.88889 7.31464 8.88889 7.80556ZM13.75 12.8611C13.75 13.352 13.352 13.75 12.8611 13.75C12.3702 13.75 11.9722 13.352 11.9722 12.8611C11.9722 12.3702 12.3702 11.9722 12.8611 11.9722C13.352 11.9722 13.75 12.3702 13.75 12.8611Z" fill="#000000"/>
</svg>
