<svg width="12" height="12" viewBox="0 0 12 12" fill="none" xmlns="http://www.w3.org/2000/svg">
<path d="M8.9002 3.80003C8.7002 3.60003 8.8002 3.30003 9.0002 3.10003C9.2002 3.00003 9.6002 3.00003 9.7002 3.30003C10.2002 4.00003 10.5002 4.90003 10.5002 5.80003C10.5002 8.30003 8.5002 10.3 6.0002 10.3V11.8C6.0002 12 5.80019 12.1 5.7002 11.9L3.7002 10V9.60003L5.6002 7.70003C5.8002 7.50003 6.0002 7.60003 6.0002 7.80003V9.30003C7.9002 9.30003 9.5002 7.70003 9.5002 5.80003C9.5002 5.10003 9.3002 4.40003 8.9002 3.80003Z" fill="context-fill"/>
<path d="M3.1 8.19998C3.3 8.39998 3.2 8.69998 3 8.89998C2.8 8.99998 2.4 8.99998 2.3 8.69998C1.8 7.99998 1.5 7.09998 1.5 6.19998C1.5 3.69998 3.5 1.69998 6 1.69998V0.199984C6 -1.62125e-05 6.2 -0.100016 6.3 0.0999838L8.3 1.99998V2.39998L6.3 4.39998C6.2 4.49998 6 4.39998 6 4.19998V2.69998C4.1 2.69998 2.5 4.29998 2.5 6.19998C2.5 6.89998 2.7 7.59998 3.1 8.19998Z" fill="context-fill"/>
</svg>
