<!-- tor-browser#42319: Make sure all the about wordmark SVGs (release, alpha,
     nightly) have the same size. This will likely add some padding to some
     channels, so the background-position for RTL languages should be ajusted
     accordingly in the respective aboutDialog.css. -->
<svg width="416" height="45" viewBox="0 0 416 45" fill="none" xmlns="http://www.w3.org/2000/svg">
<path d="M337.358 34V0H341.173V13.6246C341.823 12.5477 342.633 11.678 343.605 11.0154C345.004 10.0617 346.689 9.58485 348.66 9.58485C351.521 9.58485 353.794 10.475 355.479 12.2553C357.164 14.0355 357.99 16.7377 357.959 20.3619V34H354.144V21.7924C354.144 19.4399 353.858 17.6438 353.285 16.4039C352.745 15.1641 351.998 14.3216 351.044 13.8766C350.09 13.3997 349.01 13.1613 347.801 13.1613C345.703 13.1613 344.066 13.9084 342.89 15.4025C341.745 16.8649 341.173 18.9472 341.173 21.6494V34H337.358Z" fill="white"/>
<path fill-rule="evenodd" clip-rule="evenodd" d="M292.09 34L288.281 24.5105H273.058L269.248 34H264.957L278.547 0.619917H282.743L296.334 34H292.09ZM280.669 5.54972L286.826 20.8864H274.513L280.669 5.54972Z" fill="white"/>
<path d="M299.66 34V0.619917H303.475V34H299.66Z" fill="white"/>
<path fill-rule="evenodd" clip-rule="evenodd" d="M309.9 10.1571V43.5372H313.715V29.9955C314.454 31.2222 315.376 32.2233 316.48 32.9986C318.006 34.0477 319.771 34.5722 321.774 34.5722C323.904 34.5722 325.779 34.0477 327.401 32.9986C329.022 31.9495 330.278 30.4871 331.168 28.6115C332.09 26.7041 332.551 24.5264 332.551 22.0785C332.551 19.5989 332.09 17.4212 331.168 15.5456C330.278 13.6699 329.022 12.2076 327.401 11.1585C325.779 10.1094 323.904 9.58485 321.774 9.58485C319.771 9.58485 318.006 10.1094 316.48 11.1585C315.367 11.9405 314.438 12.9521 313.696 14.1934L313.476 10.1571H309.9ZM313.715 22.0785C313.715 23.827 314.017 25.3848 314.621 26.7518C315.257 28.1187 316.115 29.1837 317.196 29.9467C318.277 30.7097 319.516 31.0912 320.915 31.0912C322.409 31.0912 323.729 30.7097 324.873 29.9467C326.049 29.1837 326.971 28.1187 327.639 26.7518C328.338 25.3848 328.688 23.827 328.688 22.0785C328.688 20.3301 328.354 18.7723 327.687 17.4053C327.051 16.0383 326.145 14.9734 324.969 14.2104C323.792 13.4474 322.457 13.0659 320.963 13.0659C319.564 13.0659 318.308 13.4474 317.196 14.2104C316.115 14.9734 315.257 16.0383 314.621 17.4053C314.017 18.7723 313.715 20.3301 313.715 22.0785Z" fill="white"/>
<path fill-rule="evenodd" clip-rule="evenodd" d="M378.009 31.5408L378.159 34H381.688L381.736 21.0771C381.767 18.5339 381.418 16.4198 380.686 14.7349C379.955 13.0182 378.858 11.7307 377.396 10.8724C375.934 10.014 374.106 9.58485 371.912 9.58485C370.386 9.58485 369.019 9.80739 367.811 10.2525C366.635 10.6657 365.602 11.2856 364.712 12.1122C363.822 12.9388 363.059 13.9084 362.423 15.021L365.856 16.4039C366.492 15.2595 367.303 14.417 368.288 13.8766C369.305 13.3361 370.498 13.0659 371.865 13.0659C373.295 13.0659 374.44 13.3838 375.298 14.0196C376.188 14.6237 376.84 15.5456 377.253 16.7854C377.563 17.6254 377.764 18.6268 377.859 19.7896H371.245C368.352 19.7896 366.095 20.4413 364.473 21.7447C362.884 23.0164 362.089 24.8602 362.089 27.2763C362.089 29.5652 362.868 31.3614 364.426 32.6648C366.015 33.9364 368.209 34.5722 371.006 34.5722C373.995 34.5722 376.283 33.6185 377.873 31.7111C377.891 31.6889 377.909 31.6665 377.927 31.6441C377.955 31.6099 377.982 31.5755 378.009 31.5408ZM377.921 23.9383V22.9846H372.103C369.878 22.9846 368.288 23.3502 367.334 24.0813C366.412 24.8125 365.952 25.8616 365.952 27.2286C365.952 28.4684 366.412 29.454 367.334 30.1851C368.256 30.8845 369.544 31.2342 371.197 31.2342C372.564 31.2342 373.756 30.9163 374.773 30.2805C375.791 29.6447 376.57 28.7863 377.11 27.7055C377.65 26.5928 377.921 25.3371 377.921 23.9383Z" fill="white"/>
<path fill-rule="evenodd" clip-rule="evenodd" d="M99.1943 16.6591C100.019 16.0962 100.72 15.452 101.297 14.7265C102.41 13.3278 102.966 11.7541 102.966 10.0056C102.966 7.93926 102.489 6.20668 101.536 4.80789C100.614 3.40911 99.2945 2.36002 97.5778 1.66063C95.8929 0.929444 93.906 0.563853 91.6171 0.563853L85.0829 0.626673V0.611538H79.1698V33.9916H93.143C95.3684 33.9916 97.2917 33.626 98.913 32.8948C100.566 32.1637 101.838 31.0987 102.728 29.6999C103.65 28.2693 104.111 26.5526 104.111 24.5498C104.111 22.2609 103.475 20.4012 102.203 18.9706C101.413 18.0387 100.41 17.2683 99.1943 16.6591ZM92.5708 28.6031H85.0829V19.4795L86.3902 19.3998H91.9509C93.8265 19.368 95.2889 19.7812 96.338 20.6396C97.4189 21.4661 97.9593 22.6106 97.9593 24.073C97.9593 25.4718 97.4824 26.5844 96.5287 27.411C95.575 28.2057 94.2557 28.6031 92.5708 28.6031ZM85.0829 5.47549H91.331C93.0477 5.4437 94.3829 5.82519 95.3366 6.61995C96.3221 7.41472 96.8148 8.52739 96.8148 9.95796C96.8148 11.3567 96.3698 12.4535 95.4797 13.2483C94.6213 14.0113 93.4451 14.3927 91.9509 14.3927H85.0829V5.47549Z" fill="white"/>
<path d="M11.3982 6.14309V33.9916H17.4066V6.14309H28.8525V0.611538H0V6.14309H11.3982Z" fill="white"/>
<path fill-rule="evenodd" clip-rule="evenodd" d="M29.0711 32.9902C30.9468 34.0393 33.0926 34.5638 35.5087 34.5638C37.893 34.5638 40.0071 34.0393 41.8509 32.9902C43.6948 31.9093 45.1412 30.4311 46.1903 28.5554C47.2394 26.6798 47.764 24.518 47.764 22.0702C47.764 19.6223 47.2394 17.4605 46.1903 15.5849C45.1412 13.7092 43.6789 12.2469 41.8032 11.1978C39.9594 10.1169 37.8294 9.57648 35.4133 9.57648C33.029 9.57648 30.8991 10.1169 29.0234 11.1978C27.1796 12.2469 25.7331 13.7092 24.684 15.5849C23.6349 17.4605 23.1104 19.6223 23.1104 22.0702C23.1104 24.518 23.6349 26.6798 24.684 28.5554C25.7649 30.4311 27.2273 31.9093 29.0711 32.9902ZM38.799 28.317C37.8453 28.921 36.7485 29.223 35.5087 29.223C34.2689 29.223 33.1562 28.921 32.1707 28.317C31.1852 27.6812 30.4063 26.8387 29.8341 25.7897C29.2937 24.7088 29.0234 23.4689 29.0234 22.0702C29.0234 20.6714 29.2937 19.4315 29.8341 18.3507C30.4063 17.2698 31.1693 16.4273 32.123 15.8233C33.0767 15.2193 34.1735 14.9173 35.4133 14.9173C36.6532 14.9173 37.7499 15.2352 38.7037 15.871C39.6892 16.475 40.4521 17.3175 40.9926 18.3984C41.5648 19.4474 41.8509 20.6714 41.8509 22.0702C41.8509 23.4689 41.5807 24.7088 41.0403 25.7897C40.4998 26.8387 39.7527 27.6812 38.799 28.317Z" fill="white"/>
<path d="M57.4468 33.9916V21.3549C57.4468 19.9879 57.8442 18.8911 58.6389 18.0646C59.4655 17.2062 60.5146 16.5863 61.7862 16.2048C63.0896 15.8233 64.4566 15.6326 65.8872 15.6326V10.0533C64.1705 10.0533 62.5333 10.4666 60.9755 11.2932C59.5835 12.0318 58.4073 13.1132 57.4468 14.5372V10.1487H51.6768V33.9916H57.4468Z" fill="white"/>
<path d="M114.044 33.9916V21.3549C114.044 19.9879 114.441 18.8911 115.236 18.0646C116.063 17.2062 117.112 16.5863 118.383 16.2048C119.687 15.8233 121.054 15.6326 122.484 15.6326V10.0533C120.768 10.0533 119.13 10.4666 117.573 11.2932C116.181 12.0318 115.004 13.1132 114.044 14.5373V10.1487H108.274V33.9916H114.044Z" fill="white"/>
<path fill-rule="evenodd" clip-rule="evenodd" d="M130.119 32.9902C131.994 34.0393 134.14 34.5638 136.556 34.5638C138.94 34.5638 141.055 34.0393 142.898 32.9902C144.742 31.9093 146.189 30.4311 147.238 28.5554C148.287 26.6798 148.811 24.518 148.811 22.0702C148.811 19.6223 148.287 17.4605 147.238 15.5849C146.189 13.7092 144.726 12.2469 142.851 11.1978C141.007 10.1169 138.877 9.57648 136.461 9.57648C134.076 9.57648 131.947 10.1169 130.071 11.1978C128.227 12.2469 126.781 13.7092 125.731 15.5849C124.682 17.4605 124.158 19.6223 124.158 22.0702C124.158 24.518 124.682 26.6798 125.731 28.5554C126.812 30.4311 128.275 31.9093 130.119 32.9902ZM139.846 28.317C138.893 28.921 137.796 29.223 136.556 29.223C135.316 29.223 134.204 28.921 133.218 28.317C132.233 27.6812 131.454 26.8387 130.882 25.7897C130.341 24.7088 130.071 23.4689 130.071 22.0702C130.071 20.6714 130.341 19.4315 130.882 18.3507C131.454 17.2698 132.217 16.4273 133.17 15.8233C134.124 15.2193 135.221 14.9173 136.461 14.9173C137.701 14.9173 138.797 15.2352 139.751 15.871C140.737 16.475 141.5 17.3175 142.04 18.3984C142.612 19.4474 142.898 20.6714 142.898 22.0702C142.898 23.4689 142.628 24.7088 142.088 25.7897C141.547 26.8387 140.8 27.6812 139.846 28.317Z" fill="white"/>
<path d="M176.559 26.044L181.836 10.1487H187.749L179.643 33.9916H173.92L168.579 17.1966L163.239 33.9916H157.469L149.362 10.1487H155.275L160.481 26.3146L165.718 10.1487H171.441L176.559 26.044Z" fill="white"/>
<path d="M194.088 33.8486C195.423 34.3254 196.869 34.5638 198.427 34.5638C200.239 34.5638 201.845 34.2777 203.243 33.7055C204.674 33.1015 205.803 32.259 206.629 31.1782C207.456 30.0655 207.869 28.7939 207.869 27.3633C207.869 26.3778 207.646 25.3764 207.201 24.3591C206.756 23.3418 206.057 22.4199 205.103 21.5933C204.149 20.7668 202.894 20.1627 201.336 19.7812L198.379 19.0183C197.426 18.7957 196.71 18.5255 196.234 18.2076C195.757 17.8897 195.518 17.4923 195.518 17.0155C195.518 16.2843 195.773 15.7121 196.281 15.2988C196.822 14.8855 197.585 14.6789 198.57 14.6789C199.524 14.6789 200.43 14.8855 201.288 15.2988C202.178 15.7121 202.751 16.2843 203.005 17.0155L207.869 14.8219C207.487 13.7728 206.852 12.8668 205.962 12.1038C205.071 11.3091 203.991 10.6891 202.719 10.2441C201.447 9.79901 200.08 9.57648 198.618 9.57648C195.725 9.57648 193.5 10.2441 191.942 11.5793C190.384 12.8827 189.605 14.7424 189.605 17.1585C189.605 18.8116 190.257 20.2899 191.56 21.5933C192.864 22.8649 194.644 23.8027 196.901 24.4068L199.095 24.979C200.017 25.2015 200.732 25.4876 201.241 25.8373C201.781 26.187 202.051 26.6798 202.051 27.3156C202.051 27.9832 201.718 28.5078 201.05 28.8892C200.382 29.2389 199.492 29.4138 198.379 29.4138C197.235 29.4138 196.218 29.1277 195.328 28.5554C194.469 27.9514 193.802 27.252 193.325 26.4573L188.318 28.6985C188.858 29.9065 189.621 30.9556 190.607 31.8458C191.592 32.7041 192.753 33.3717 194.088 33.8486Z" fill="white"/>
<path fill-rule="evenodd" clip-rule="evenodd" d="M222.071 34.5638C219.718 34.5638 217.636 34.0393 215.824 32.9902C214.044 31.9093 212.629 30.4311 211.58 28.5554C210.563 26.6798 210.054 24.518 210.054 22.0702C210.054 19.6223 210.578 17.4605 211.628 15.5849C212.677 13.7092 214.123 12.2469 215.967 11.1978C217.811 10.1169 219.925 9.57648 222.309 9.57648C224.407 9.57648 226.331 10.1328 228.079 11.2455C229.828 12.3264 231.211 13.9159 232.228 16.0141C233.277 18.0804 233.801 20.5919 233.801 23.5484H216.053C216.181 24.497 216.455 25.3235 216.873 26.0281C217.477 27.0454 218.288 27.8243 219.305 28.3647C220.322 28.9051 221.435 29.1754 222.643 29.1754C223.978 29.1754 225.059 28.8892 225.886 28.317C226.744 27.713 227.412 26.95 227.888 26.0281L233.277 28.1739C232.641 29.5092 231.783 30.6536 230.702 31.6073C229.653 32.561 228.413 33.2922 226.982 33.8009C225.552 34.3095 223.915 34.5638 222.071 34.5638ZM227.269 18.4937C227.326 18.6467 227.38 18.8056 227.43 18.9706H216.358C216.45 18.6481 216.558 18.3461 216.682 18.0646C217.159 16.9519 217.859 16.1253 218.78 15.5849C219.702 15.0127 220.815 14.7265 222.118 14.7265C223.326 14.7265 224.36 15.0286 225.218 15.6326C226.108 16.2366 226.792 17.1903 227.269 18.4937Z" fill="white"/>
<path d="M242.993 21.3549V33.9916H237.223V10.1487H242.993V14.5372C243.954 13.1132 245.13 12.0318 246.522 11.2932C248.08 10.4666 249.717 10.0533 251.434 10.0533V15.6326C250.003 15.6326 248.636 15.8233 247.333 16.2048C246.061 16.5863 245.012 17.2062 244.185 18.0646C243.391 18.8911 242.993 19.9879 242.993 21.3549Z" fill="white"/>
</svg>
