<svg width="16" height="16" viewBox="0 0 16 16" fill="none" xmlns="http://www.w3.org/2000/svg">
<path d="M6.62435 8.54824C6.23983 8.91273 6 9.42836 6 10C6 11.1046 6.89543 12 8 12C8.57164 12 9.08727 11.7602 9.45176 11.3757L8.74414 10.668C8.56107 10.8718 8.29551 11 8 11C7.44772 11 7 10.5523 7 10C7 9.70449 7.12818 9.43893 7.33197 9.25586L6.62435 8.54824Z" fill-opacity="context-fill-opacity" fill="context-fill"/>
<path d="M9.99442 10.1505C9.99812 10.1008 10 10.0506 10 10C10 8.89543 9.10457 8 8 8C7.94936 8 7.89915 8.00188 7.84946 8.00558L9.99442 10.1505Z" fill-opacity="context-fill-opacity" fill="context-fill"/>
<path d="M5.20988 7.13377C4.46354 7.86041 4 8.87607 4 10C4 12.2091 5.79086 14 8 14C9.12393 14 10.1396 13.5365 10.8662 12.7901L10.159 12.0829C9.61343 12.6483 8.84778 13 8 13C6.34315 13 5 11.6569 5 10C5 9.15222 5.35166 8.38657 5.91707 7.84097L5.20988 7.13377Z" fill-opacity="context-fill-opacity" fill="context-fill"/>
<path d="M10.8331 10.9892C10.9412 10.6795 11 10.3466 11 10C11 8.34315 9.65685 7 8 7C7.65339 7 7.32052 7.05878 7.01079 7.16692L6.24731 6.40343C6.77658 6.14502 7.37135 6 8 6C10.2091 6 12 7.79086 12 10C12 10.6286 11.855 11.2234 11.5966 11.7527L10.8331 10.9892Z" fill-opacity="context-fill-opacity" fill="context-fill"/>
<path fill-rule="evenodd" clip-rule="evenodd" d="M14 10C14 8.223 13.2275 6.62643 12 5.52779V4C12 1.79086 10.2091 0 8 0C5.79086 0 4 1.79086 4 4V4.15613L5.50811 5.66423C6.2417 5.2417 7.09263 5 8 5C10.7614 5 13 7.23858 13 10C13 10.9074 12.7583 11.7583 12.3358 12.4919L13.0637 13.2199C13.6565 12.2896 14 11.1849 14 10ZM8 4C7.00883 4 6.0738 4.24033 5.25 4.66591V4C5.25 2.48122 6.48122 1.25 8 1.25C9.51878 1.25 10.75 2.48122 10.75 4V4.66591C9.9262 4.24033 8.99117 4 8 4Z" fill-opacity="context-fill-opacity" fill="context-fill"/>
<path d="M12.2805 14.2044C11.1919 15.3126 9.67621 16 8 16C4.68629 16 2 13.3137 2 10C2 8.32379 2.68736 6.80812 3.79558 5.71948L4.50272 6.42662C3.57545 7.33427 3 8.59993 3 10C3 12.7614 5.23858 15 8 15C9.40007 15 10.6657 14.4246 11.5734 13.4973L12.2805 14.2044Z" fill-opacity="context-fill-opacity" fill="context-fill"/>
<path fill-rule="evenodd" clip-rule="evenodd" d="M1.25801 3.93806C1.50209 3.69398 1.89782 3.69398 2.14189 3.93806L13.1419 14.9381C13.386 15.1821 13.386 15.5779 13.1419 15.8219C12.8978 16.066 12.5021 16.066 12.258 15.8219L1.25801 4.82194C1.01393 4.57787 1.01393 4.18214 1.25801 3.93806Z" fill="#F90D3F"/>
</svg>
