<svg width="16" height="16" viewBox="0 0 16 16" fill="none" xmlns="http://www.w3.org/2000/svg">
<path fill-rule="evenodd" clip-rule="evenodd" d="M7.92788 10.5342L7.42044 11.408C7.05803 11.7736 6.55546 12 6 12C4.89543 12 4 11.1046 4 10C4 8.89543 4.89543 8 6 8C7.10457 8 8 8.89543 8 10C8 10.185 7.97488 10.3641 7.92788 10.5342ZM7 10C7 10.5523 6.55228 11 6 11C5.44772 11 5 10.5523 5 10C5 9.44772 5.44772 9 6 9C6.55228 9 7 9.44772 7 10Z" fill-opacity="context-fill-opacity" fill="context-fill"/>
<path d="M6.52221 12.9547C6.35262 12.9845 6.17812 13 6 13C4.34315 13 3 11.6569 3 10C3 8.34315 4.34315 7 6 7C7.30202 7 8.41032 7.82945 8.8253 8.98878L9.35089 8.08372C9.37772 8.03755 9.40587 7.99285 9.43523 7.94962C8.73673 6.78186 7.45967 6 6 6C3.79086 6 2 7.79086 2 10C2 12.1857 3.75302 13.9619 5.92975 13.9994C5.96208 13.9274 5.99884 13.8558 6.0402 13.7847L6.52221 12.9547Z" fill-opacity="context-fill-opacity" fill="context-fill"/>
<path fill-rule="evenodd" clip-rule="evenodd" d="M11.1978 7.00088C10.8782 6.44807 10.4728 5.95098 10 5.52779V4C10 1.79086 8.20914 0 6 0C3.79086 0 2 1.79086 2 4V5.52779C0.772501 6.62643 0 8.223 0 10C0 13.3137 2.68629 16 6 16C6.03024 16 6.06043 15.9998 6.09057 15.9993C5.89561 15.7007 5.77424 15.3557 5.749 14.9938C3.10419 14.8631 1 12.6773 1 10C1 7.23858 3.23858 5 6 5C7.75288 5 9.29509 5.90201 10.1878 7.26719C10.5002 7.0977 10.8482 7.00893 11.1978 7.00088ZM6 4C5.00883 4 4.0738 4.24033 3.25 4.66591V4C3.25 2.48122 4.48122 1.25 6 1.25C7.51878 1.25 8.75 2.48122 8.75 4V4.66591C7.9262 4.24033 6.99117 4 6 4Z" fill-opacity="context-fill-opacity" fill="context-fill"/>
<path d="M15.5956 14.2875L12.2846 8.58591C11.8306 7.8047 10.6696 7.8047 10.2156 8.58591L6.90465 14.2875C6.45865 15.0529 7.03065 16 7.93865 16H14.5616C15.4686 16 16.0406 15.0529 15.5956 14.2875ZM11.8746 12.4189C11.8746 12.5826 11.8088 12.7396 11.6916 12.8553C11.5744 12.9711 11.4154 13.0361 11.2496 13.0361C11.0839 13.0361 10.9249 12.9711 10.8077 12.8553C10.6905 12.7396 10.6246 12.5826 10.6246 12.4189V10.6935C10.6246 10.5298 10.6905 10.3728 10.8077 10.257C10.9249 10.1413 11.0839 10.0762 11.2496 10.0762C11.4154 10.0762 11.5744 10.1413 11.6916 10.257C11.8088 10.3728 11.8746 10.5298 11.8746 10.6935V12.4189ZM11.2496 15.0124C11.0839 15.0124 10.9249 14.9473 10.8077 14.8316C10.6905 14.7158 10.6246 14.5588 10.6246 14.3951C10.6246 14.2314 10.6905 14.0744 10.8077 13.9586C10.9249 13.8429 11.0839 13.7778 11.2496 13.7778C11.4154 13.7778 11.5744 13.8429 11.6916 13.9586C11.8088 14.0744 11.8746 14.2314 11.8746 14.3951C11.8746 14.5588 11.8088 14.7158 11.6916 14.8316C11.5744 14.9473 11.4154 15.0124 11.2496 15.0124Z" fill-opacity="context-fill-opacity" fill="context-stroke"/>
</svg>
