<svg width="16" height="16" viewBox="0 0 16 16" fill="none" xmlns="http://www.w3.org/2000/svg">
<path fill-rule="evenodd" clip-rule="evenodd" d="M8 13C9.65685 13 11 11.6569 11 10C11 8.34315 9.65685 7 8 7C6.34315 7 5 8.34315 5 10C5 11.6569 6.34315 13 8 13ZM8 14C10.2091 14 12 12.2091 12 10C12 7.79086 10.2091 6 8 6C5.79086 6 4 7.79086 4 10C4 12.2091 5.79086 14 8 14Z" fill="context-fill" fill-opacity="context-fill-opacity"/>
<path fill-rule="evenodd" clip-rule="evenodd" d="M8 11C8.55228 11 9 10.5523 9 10C9 9.44772 8.55228 9 8 9C7.44772 9 7 9.44772 7 10C7 10.5523 7.44772 11 8 11ZM8 12C9.10457 12 10 11.1046 10 10C10 8.89543 9.10457 8 8 8C6.89543 8 6 8.89543 6 10C6 11.1046 6.89543 12 8 12Z" fill="context-fill" fill-opacity="context-fill-opacity"/>
<path fill-rule="evenodd" clip-rule="evenodd" d="M12 5.52779C13.2275 6.62643 14 8.223 14 10C14 13.3137 11.3137 16 8 16C4.68629 16 2 13.3137 2 10C2 8.223 2.7725 6.62643 4 5.52779V4C4 1.79086 5.79086 0 8 0C10.2091 0 12 1.79086 12 4V5.52779ZM5.25 4.66591C6.0738 4.24033 7.00883 4 8 4C8.99117 4 9.9262 4.24033 10.75 4.66591V4C10.75 2.48122 9.51878 1.25 8 1.25C6.48122 1.25 5.25 2.48122 5.25 4V4.66591ZM13 10C13 12.7614 10.7614 15 8 15C5.23858 15 3 12.7614 3 10C3 7.23858 5.23858 5 8 5C10.7614 5 13 7.23858 13 10Z" fill="context-fill" fill-opacity="context-fill-opacity"/>
</svg>
