<!-- tor-browser#42319: Make sure all the about wordmark SVGs (release, alpha,
     nightly) have the same size. This will likely add some padding to some
     channels, so the background-position for RTL languages should be ajusted
     accordingly in the respective aboutDialog.css. -->
<svg width="416" height="45" viewBox="0 0 416 45" fill="none" xmlns="http://www.w3.org/2000/svg">
<path d="M11.3982 33.4278V2.81346H17.4066V33.4278H11.3982ZM0 5.57924V0.0476854H28.8525V5.57924H0Z" fill="white"/>
<path d="M35.5087 34C33.0926 34 30.9468 33.4755 29.0711 32.4264C27.2273 31.3455 25.7649 29.8672 24.684 27.9916C23.6349 26.1159 23.1104 23.9542 23.1104 21.5063C23.1104 19.0584 23.6349 16.8967 24.684 15.021C25.7331 13.1454 27.1796 11.683 29.0234 10.6339C30.8991 9.55306 33.029 9.01262 35.4133 9.01262C37.8294 9.01262 39.9594 9.55306 41.8032 10.6339C43.6789 11.683 45.1412 13.1454 46.1903 15.021C47.2394 16.8967 47.764 19.0584 47.764 21.5063C47.764 23.9542 47.2394 26.1159 46.1903 27.9916C45.1412 29.8672 43.6948 31.3455 41.8509 32.4264C40.0071 33.4755 37.893 34 35.5087 34ZM35.5087 28.6592C36.7485 28.6592 37.8453 28.3572 38.799 27.7532C39.7527 27.1173 40.4998 26.2749 41.0403 25.2258C41.5807 24.1449 41.8509 22.9051 41.8509 21.5063C41.8509 20.1075 41.5648 18.8836 40.9926 17.8345C40.4521 16.7536 39.6892 15.9112 38.7037 15.3072C37.7499 14.6713 36.6532 14.3534 35.4133 14.3534C34.1735 14.3534 33.0767 14.6554 32.123 15.2595C31.1693 15.8635 30.4063 16.7059 29.8341 17.7868C29.2937 18.8677 29.0234 20.1075 29.0234 21.5063C29.0234 22.9051 29.2937 24.1449 29.8341 25.2258C30.4063 26.2749 31.1852 27.1173 32.1707 27.7532C33.1562 28.3572 34.2689 28.6592 35.5087 28.6592Z" fill="white"/>
<path d="M55.6347 20.8387C55.6347 18.2637 56.1275 16.1496 57.113 14.4965C58.1303 12.8116 59.4178 11.5559 60.9755 10.7293C62.5333 9.90276 64.1705 9.48948 65.8872 9.48948V15.0687C64.4566 15.0687 63.0896 15.2595 61.7862 15.641C60.5146 16.0224 59.4655 16.6424 58.6389 17.5007C57.8442 18.3273 57.4468 19.424 57.4468 20.791L55.6347 20.8387ZM51.6768 33.4278V9.58485H57.4468V33.4278H51.6768Z" fill="white"/>
<path d="M81.8879 33.4278V28.0393H92.5708C94.2557 28.0393 95.575 27.6419 96.5287 26.8471C97.4825 26.0206 97.9593 24.9079 97.9593 23.5091C97.9593 22.0467 97.4189 20.9023 96.338 20.0757C95.2889 19.2174 93.8265 18.8041 91.9509 18.8359H81.8879V14.0673L88.9467 14.1627C91.9986 14.1627 94.6531 14.5124 96.9102 15.2118C99.1991 15.8794 100.964 16.9444 102.203 18.4067C103.475 19.8373 104.111 21.6971 104.111 23.986C104.111 25.9888 103.65 27.7055 102.728 29.136C101.838 30.5348 100.566 31.5998 98.913 32.331C97.2917 33.0622 95.3684 33.4278 93.143 33.4278H81.8879ZM79.1698 33.4278V0.0476854H85.0829V33.4278H79.1698ZM81.6972 19.122V13.8289H91.9509C93.4451 13.8289 94.6213 13.4474 95.4797 12.6844C96.3698 11.8897 96.8148 10.7929 96.8148 9.39411C96.8148 7.96353 96.3221 6.85087 95.3366 6.0561C94.3829 5.26134 93.0477 4.87985 91.331 4.91164H81.6972V0.0953709L91.6171 0C93.906 0 95.8929 0.365591 97.5778 1.09677C99.2945 1.79617 100.614 2.84525 101.536 4.24404C102.489 5.64282 102.966 7.37541 102.966 9.4418C102.966 11.1903 102.41 12.7639 101.297 14.1627C100.185 15.5615 98.611 16.6583 96.5764 17.453C94.5736 18.2478 92.2211 18.6452 89.5189 18.6452L81.6972 19.122Z" fill="white"/>
<path d="M112.232 20.8387C112.232 18.2637 112.725 16.1496 113.71 14.4965C114.727 12.8116 116.015 11.5559 117.573 10.7293C119.13 9.90276 120.768 9.48948 122.484 9.48948V15.0687C121.054 15.0687 119.687 15.2595 118.383 15.641C117.112 16.0224 116.063 16.6424 115.236 17.5007C114.441 18.3273 114.044 19.424 114.044 20.791L112.232 20.8387ZM108.274 33.4278V9.58485H114.044V33.4278H108.274Z" fill="white"/>
<path d="M136.556 34C134.14 34 131.994 33.4755 130.119 32.4264C128.275 31.3455 126.812 29.8672 125.731 27.9916C124.682 26.1159 124.158 23.9542 124.158 21.5063C124.158 19.0584 124.682 16.8967 125.731 15.021C126.781 13.1454 128.227 11.683 130.071 10.6339C131.947 9.55306 134.076 9.01262 136.461 9.01262C138.877 9.01262 141.007 9.55306 142.851 10.6339C144.726 11.683 146.189 13.1454 147.238 15.021C148.287 16.8967 148.811 19.0584 148.811 21.5063C148.811 23.9542 148.287 26.1159 147.238 27.9916C146.189 29.8672 144.742 31.3455 142.898 32.4264C141.055 33.4755 138.94 34 136.556 34ZM136.556 28.6592C137.796 28.6592 138.893 28.3572 139.846 27.7532C140.8 27.1173 141.547 26.2749 142.088 25.2258C142.628 24.1449 142.898 22.9051 142.898 21.5063C142.898 20.1075 142.612 18.8836 142.04 17.8345C141.5 16.7536 140.737 15.9112 139.751 15.3072C138.797 14.6713 137.701 14.3534 136.461 14.3534C135.221 14.3534 134.124 14.6554 133.17 15.2595C132.217 15.8635 131.454 16.7059 130.882 17.7868C130.341 18.8677 130.071 20.1075 130.071 21.5063C130.071 22.9051 130.341 24.1449 130.882 25.2258C131.454 26.2749 132.233 27.1173 133.218 27.7532C134.204 28.3572 135.316 28.6592 136.556 28.6592Z" fill="white"/>
<path d="M173.92 33.4278L181.836 9.58485H187.749L179.643 33.4278H173.92ZM157.993 33.4278L165.718 9.58485H170.821L163.239 33.4278H157.993ZM157.469 33.4278L149.362 9.58485H155.275L162.952 33.4278H157.469ZM173.92 33.4278L166.338 9.58485H171.441L179.118 33.4278H173.92Z" fill="white"/>
<path d="M198.427 34C196.869 34 195.423 33.7616 194.088 33.2847C192.753 32.8079 191.592 32.1402 190.607 31.2819C189.621 30.3918 188.858 29.3427 188.318 28.1346L193.325 25.8934C193.802 26.6882 194.469 27.3876 195.328 27.9916C196.218 28.5638 197.235 28.8499 198.379 28.8499C199.492 28.8499 200.382 28.6751 201.05 28.3254C201.717 27.9439 202.051 27.4194 202.051 26.7518C202.051 26.1159 201.781 25.6232 201.241 25.2735C200.732 24.9238 200.017 24.6377 199.095 24.4151L196.901 23.8429C194.644 23.2389 192.864 22.3011 191.56 21.0295C190.257 19.726 189.605 18.2478 189.605 16.5947C189.605 14.1786 190.384 12.3188 191.942 11.0154C193.5 9.68022 195.725 9.01262 198.618 9.01262C200.08 9.01262 201.447 9.23516 202.719 9.68022C203.991 10.1253 205.071 10.7452 205.962 11.54C206.852 12.3029 207.487 13.209 207.869 14.2581L203.005 16.4516C202.751 15.7204 202.178 15.1482 201.288 14.7349C200.43 14.3216 199.524 14.115 198.57 14.115C197.585 14.115 196.822 14.3216 196.281 14.7349C195.773 15.1482 195.518 15.7204 195.518 16.4516C195.518 16.9285 195.757 17.3259 196.234 17.6438C196.71 17.9617 197.426 18.2319 198.379 18.4544L201.336 19.2174C202.894 19.5989 204.149 20.2029 205.103 21.0295C206.057 21.856 206.756 22.7779 207.201 23.7952C207.646 24.8125 207.869 25.8139 207.869 26.7994C207.869 28.23 207.456 29.5016 206.629 30.6143C205.803 31.6952 204.674 32.5376 203.243 33.1417C201.845 33.7139 200.239 34 198.427 34Z" fill="white"/>
<path d="M222.071 34C219.718 34 217.636 33.4755 215.824 32.4264C214.044 31.3455 212.629 29.8672 211.58 27.9916C210.563 26.1159 210.054 23.9542 210.054 21.5063C210.054 19.0584 210.578 16.8967 211.628 15.021C212.677 13.1454 214.123 11.683 215.967 10.6339C217.811 9.55306 219.925 9.01262 222.309 9.01262C224.407 9.01262 226.331 9.56896 228.079 10.6816C229.828 11.7625 231.211 13.352 232.228 15.4502C233.277 17.5166 233.801 20.028 233.801 22.9846H227.936C227.968 20.8864 227.745 19.2015 227.269 17.9299C226.792 16.6265 226.108 15.6727 225.218 15.0687C224.36 14.4647 223.326 14.1627 222.118 14.1627C220.815 14.1627 219.702 14.4488 218.78 15.021C217.859 15.5615 217.159 16.388 216.682 17.5007C216.205 18.5816 215.967 19.9645 215.967 21.6494C215.967 23.1753 216.269 24.4469 216.873 25.4642C217.477 26.4815 218.288 27.2604 219.305 27.8008C220.322 28.3413 221.435 28.6115 222.643 28.6115C223.978 28.6115 225.059 28.3254 225.886 27.7532C226.744 27.1491 227.412 26.3862 227.888 25.4642L233.277 27.6101C232.641 28.9453 231.783 30.0898 230.702 31.0435C229.653 31.9972 228.413 32.7284 226.982 33.237C225.552 33.7457 223.915 34 222.071 34ZM213.869 22.9846L213.916 18.4067H230.845V22.9846H213.869Z" fill="white"/>
<path d="M241.181 20.8387C241.181 18.2637 241.674 16.1496 242.659 14.4965C243.677 12.8116 244.964 11.5559 246.522 10.7293C248.08 9.90276 249.717 9.48948 251.434 9.48948V15.0687C250.003 15.0687 248.636 15.2595 247.333 15.641C246.061 16.0224 245.012 16.6424 244.185 17.5007C243.391 18.3273 242.993 19.424 242.993 20.791L241.181 20.8387ZM237.223 33.4278V9.58485H242.993V33.4278H237.223Z" fill="white"/>
</svg>
