<?xml version="1.0" encoding="UTF-8" standalone="no"?>
<svg width="16" height="16" viewBox="0 0 16 16" fill="none" xmlns="http://www.w3.org/2000/svg">
    <path d="M10.9991 8.352L5.53406 13.818C5.41557 13.9303 5.25792 13.9918 5.09472 13.9895C4.93152 13.9872 4.77567 13.9212 4.66039 13.8057C4.54511 13.6902 4.47951 13.5342 4.47758 13.3709C4.47565 13.2077 4.53754 13.0502 4.65006 12.932L9.58506 7.998L4.65106 3.067C4.53868 2.94864 4.47697 2.79106 4.47909 2.62786C4.48121 2.46466 4.54698 2.30874 4.66239 2.19333C4.7778 2.07792 4.93372 2.01215 5.09692 2.01003C5.26012 2.00792 5.41769 2.06962 5.53606 2.182L11.0001 7.647L10.9991 8.352Z" fill="context-fill"/>
</svg>
