<svg width="16" height="16" viewBox="0 0 16 16" fill="none" xmlns="http://www.w3.org/2000/svg">
  <path fill-rule="evenodd" d="M7.73334 11.442C7.73334 9.541 9.34511 8.00001 11.3333 8.00001C13.3216 8.00001 14.9333 9.541 14.9333 11.442C14.9333 12.801 13.0948 14.729 12.0456 15.7185C11.855 15.899 11.5994 16 11.3333 16C11.0672 16 10.8117 15.899 10.6211 15.7185C9.57191 14.729 7.73334 12.8005 7.73334 11.442ZM10.7466 9.98339C10.9326 9.90634 11.132 9.86667 11.3333 9.86667C11.74 9.86667 12.13 10.0282 12.4176 10.3158C12.7051 10.6033 12.8667 10.9933 12.8667 11.4C12.8667 11.8067 12.7051 12.1967 12.4176 12.4842C12.13 12.7718 11.74 12.9333 11.3333 12.9333C11.132 12.9333 10.9326 12.8937 10.7466 12.8166C10.5605 12.7396 10.3915 12.6266 10.2491 12.4842C10.1067 12.3419 9.99378 12.1728 9.91672 11.9868C9.83966 11.8008 9.8 11.6014 9.8 11.4C9.8 11.1986 9.83966 10.9993 9.91672 10.8132C9.99378 10.6272 10.1067 10.4582 10.2491 10.3158C10.3915 10.1734 10.5605 10.0604 10.7466 9.98339Z" fill="context-stroke"/>
  <path d="M15.4042 9.15991C15.489 8.70846 15.5333 8.24275 15.5333 7.76667C15.5333 3.62454 12.1755 0.26667 8.03332 0.26667C3.89119 0.26667 0.533325 3.62454 0.533325 7.76667C0.533325 11.9088 3.89119 15.2667 8.03332 15.2667C8.33067 15.2667 8.62398 15.2494 8.91229 15.2157C7.77562 13.9767 6.66666 12.467 6.66666 11.2932C6.66666 10.0893 7.18892 8.99941 8.03333 8.21045V5.93855C8.83962 5.93855 9.52399 6.46053 9.76697 7.185C10.1327 7.06327 10.5195 6.98297 10.9209 6.95013C10.5653 5.69011 9.40713 4.76667 8.03333 4.76667L8.03332 3.68854C10.0174 3.68854 11.6705 5.10537 12.0361 6.98245C12.4679 7.04338 12.8804 7.1596 13.2649 7.32314C13.0397 4.63121 10.7834 2.51667 8.03332 2.51666V1.43855C11.5283 1.43855 14.3615 4.27174 14.3615 7.76667C14.3615 7.83574 14.3604 7.90454 14.3582 7.97308C14.7773 8.30672 15.1325 8.70843 15.4042 9.15991Z" fill="context-fill"/>
</svg>
