<svg fill="none" height="16" viewBox="0 0 16 16" width="16" xmlns="http://www.w3.org/2000/svg">
  <rect height="1.22295" rx=".611475" transform="matrix(-.707107 -.707107 -.707107 .707107 14.9464 14.1921)" width="18.6565" fill="context-fill" />
  <g fill="context-fill" fill-rule="evenodd">
    <path d="m3.9498 1.68761c1.19924-.769433 2.60316-1.18761 4.0502-1.18761 1.98912 0 3.8968.79018 5.3033 2.1967s2.1967 3.31418 2.1967 5.3033c0 1.44704-.4182 2.851-1.1876 4.0502l-.9179-.9179c.4428-.7667.7192-1.62112.8075-2.5073h-2.229c-.0215.32648-.0599.65056-.1148.971l-2.22101-2.221h1.08181c-.146-1.92835-.96795-3.74329-2.321-5.125h-.796c-.52113.53217-.96348 1.12861-1.31877 1.77104l-.9115-.9115c.17951-.29615.37579-.58315.58827-.85954h-.408c-.23805.10224-.46875.21884-.69093.34888zm9.0744 2.61245c-.6605-.90129-1.5504-1.60918-2.5772-2.05006h-.407c1.1378 1.47922 1.8109 3.26288 1.934 5.125h2.229c-.1112-1.11187-.5182-2.17365-1.1788-3.07494z" />
    <path d="m3.08673 2.33343c-.13383.11605-.26395.23718-.39003.36327-1.40652 1.40652-2.1967 3.31418-2.1967 5.3033s.79018 3.8968 2.1967 5.3033 3.31418 2.1967 5.3033 2.1967 3.8968-.7902 5.3033-2.1967c.1261-.1261.2472-.2562.3633-.39l-.8933-.8933c-.6277.7494-1.4237 1.3427-2.3253 1.73h-.409c.6819-.8861 1.1969-1.8815 1.5266-2.9377l-1.0208-1.02083c-.3313 1.48633-1.07154 2.85943-2.1478 3.95853h-.795c-1.35305-1.3817-2.175-3.1966-2.321-5.125h4.09731l-1.25-1.25h-2.84731c.06073-.80217.23844-1.58472.52269-2.32462l-.95329-.95329c-.46748 1.02882-.74878 2.13867-.8244 3.27791h-2.229c.11102-1.1118.51787-2.17355 1.17823-3.07484.29198-.39851.62881-.75922 1.00248-1.07575zm-.11176 9.36657c.66039.9014 1.55027 1.6092 2.57703 2.05h.408c-1.13778-1.4792-1.81088-3.2629-1.934-5.125h-2.229c.11081 1.11186.51758 2.1737 1.17797 3.075z" />
  </g>
</svg>
