<svg width="16" height="16" viewBox="0 0 16 16" fill="none" xmlns="http://www.w3.org/2000/svg">
<g>
<path fill-rule="evenodd" clip-rule="evenodd" d="M8.00001 0.501331C3.85867 0.501331 0.501343 3.85866 0.501343 8C0.501343 11.5867 3.01868 14.584 6.38401 15.3227C6.73601 15.4 7.09333 15.4533 7.46134 15.4773V9.74933C6.71467 9.52 6.17068 8.82401 6.17068 8C6.17068 6.98934 6.98935 6.17067 8.00001 6.17067C9.01067 6.17067 9.82934 6.98934 9.82934 8C9.82934 8.82401 9.28534 9.52 8.53868 9.74933V15.4773C8.90668 15.4533 9.26401 15.4 9.61601 15.3227C12.9813 14.584 15.4987 11.5867 15.4987 8C15.4987 3.85866 12.1414 0.501331 8.00001 0.501331ZM9.61601 14.1173V10.528C10.448 9.99466 11 9.06133 11 8C11 6.344 9.65601 5 8.00001 5C6.344 5 5.00001 6.344 5.00001 8C5.00001 9.06133 5.55201 9.99466 6.38401 10.528V14.1173C3.67201 13.4053 1.67201 10.9387 1.67201 8C1.67201 4.504 4.50401 1.67201 8.00001 1.67201C11.496 1.67201 14.328 4.50401 14.328 8C14.328 10.9387 12.328 13.4053 9.61601 14.1173Z" fill="context-fill" fill-opacity="context-fill-opacity"/>
<path fill-rule="evenodd" clip-rule="evenodd" d="M7.99999 2.74933C5.10133 2.74933 2.74933 5.10134 2.74933 8C2.74933 10.336 4.27467 12.3147 6.384 12.9947V11.744C4.936 11.12 3.92267 9.67733 3.92267 8C3.92267 5.74666 5.74666 3.92267 7.99999 3.92267C10.2533 3.92267 12.0773 5.74666 12.0773 8C12.0773 9.67733 11.064 11.12 9.61599 11.744V12.9947C11.7253 12.3147 13.2507 10.336 13.2507 8C13.2507 5.10133 10.8987 2.74933 7.99999 2.74933Z" fill="context-fill" fill-opacity="context-fill-opacity"/>
<path d="M7.99997 8.84C8.46389 8.84 8.83997 8.46392 8.83997 8C8.83997 7.53608 8.46389 7.16 7.99997 7.16C7.53605 7.16 7.15997 7.53608 7.15997 8C7.15997 8.46392 7.53605 8.84 7.99997 8.84Z" fill="context-fill" fill-opacity="context-fill-opacity"/>
</g>
</svg>
