<svg width="16" height="16" viewBox="0 0 16 16" fill="none" xmlns="http://www.w3.org/2000/svg">
  <path d="M3.32745 2.13476C4.60904 1.11242 6.23317 0.501331 8 0.501331C12.1414 0.501331 15.4987 3.85866 15.4987 8C15.4987 9.76709 14.8876 11.3911 13.8652 12.6725L13.0315 11.8388C13.8448 10.7747 14.328 9.44438 14.328 8C14.328 4.50401 11.496 1.672 8 1.672C6.5562 1.672 5.22564 2.15503 4.16105 2.96836L3.32745 2.13476Z" fill="context-fill" fill-opacity="context-fill-opacity" />
  <path d="M2.35636 3.06235C1.20135 4.38144 0.501343 6.10899 0.501343 8C0.501343 11.5867 3.01868 14.584 6.38401 15.3227C6.73601 15.4 7.09333 15.4533 7.46134 15.4773V9.74933C6.71467 9.52 6.17068 8.82401 6.17068 8C6.17068 7.67615 6.25474 7.37202 6.40223 7.10822L5.55539 6.26138C5.20574 6.75196 5.00001 7.3521 5.00001 8C5.00001 9.06133 5.55201 9.99466 6.38401 10.528V14.1173C3.67201 13.4053 1.67201 10.9387 1.67201 8C1.67201 6.43179 2.24187 4.99718 3.18588 3.89187L2.35636 3.06235Z" fill="context-fill" fill-opacity="context-fill-opacity" />
  <path d="M6.56041 5.36771L7.44804 6.25534C7.62219 6.20033 7.80762 6.17067 8.00001 6.17067C9.01067 6.17067 9.82934 6.98934 9.82934 8C9.82934 8.19242 9.79968 8.37785 9.7447 8.552L10.6324 9.43967C10.8667 9.01221 11 8.52156 11 8C11 6.34399 9.65601 5 8.00001 5C7.47845 5 6.98783 5.13332 6.56041 5.36771Z" fill="context-fill" fill-opacity="context-fill-opacity" />
  <path d="M9.73889 10.4449L8.89214 9.59813C8.78095 9.66036 8.6626 9.71127 8.53868 9.74933V15.4773C8.90668 15.4533 9.26401 15.4 9.61601 15.3227C10.8695 15.0475 12.0054 14.459 12.9374 13.6434L12.1076 12.8136C11.396 13.4207 10.5481 13.8726 9.61601 14.1173V10.528C9.65768 10.5013 9.69865 10.4736 9.73889 10.4449Z" fill="context-fill" fill-opacity="context-fill-opacity" />
  <path d="M12.2609 11.0682C12.8837 10.2055 13.2507 9.14573 13.2507 8C13.2507 5.10133 10.8987 2.74933 7.99999 2.74933C6.85488 2.74933 5.79508 3.11639 4.9319 3.73921L5.77475 4.58207C6.41445 4.16498 7.1787 3.92267 7.99999 3.92267C10.2533 3.92267 12.0773 5.74666 12.0773 8C12.0773 8.82056 11.8348 9.58497 11.4175 10.2248L12.2609 11.0682Z" fill="context-fill" fill-opacity="context-fill-opacity" />
  <path d="M10.5086 11.2146L11.3423 12.0483C10.8375 12.4651 10.2534 12.7892 9.616 12.9947V11.744C9.93702 11.6057 10.2367 11.4271 10.5086 11.2146Z" fill="context-fill" fill-opacity="context-fill-opacity" />
  <path d="M4.78492 5.49092L3.95137 4.65737C3.20058 5.56555 2.74933 6.73033 2.74933 8C2.74933 10.336 4.27467 12.3147 6.384 12.9947V11.744C4.936 11.12 3.92267 9.67733 3.92267 8C3.92267 7.05341 4.24455 6.18259 4.78492 5.49092Z" fill="context-fill" fill-opacity="context-fill-opacity" />
  <path d="M7.16918 7.8752L8.12478 8.83079C8.08406 8.83686 8.04238 8.84 7.99997 8.84C7.53605 8.84 7.15997 8.46392 7.15997 8C7.15997 7.95759 7.16312 7.91592 7.16918 7.8752Z" fill="context-fill" fill-opacity="context-fill-opacity" />
  <path d="M1.15533 1.85684L14.0906 14.7921C14.3511 15.0527 14.3511 15.4751 14.0906 15.7357L14.0906 15.7357C13.83 15.9963 13.4075 15.9963 13.1469 15.7357L0.211679 2.8005C-0.048903 2.53992 -0.0489032 2.11743 0.211682 1.85684C0.472265 1.59626 0.894753 1.59626 1.15533 1.85684Z" fill="context-stroke" fill-opacity="context-fill-opacity" />
</svg>
