<svg width="24" height="24" viewBox="0 0 24 24" fill="context-fill" xmlns="http://www.w3.org/2000/svg">
  <path d="M5.5 3C4.83696 3 4.20107 3.26339 3.73223 3.73223C3.26339 4.20107 3 4.83696 3 5.5V9H4.75V5.5C4.75 5.30109 4.82902 5.11032 4.96967 4.96967C5.11032 4.82902 5.30109 4.75 5.5 4.75H9V3H5.5ZM11 10.25C11 10.4489 10.921 10.6397 10.7803 10.7803C10.6397 10.921 10.4489 11 10.25 11H7.75C7.55109 11 7.36032 10.921 7.21967 10.7803C7.07902 10.6397 7 10.4489 7 10.25V7.75C7 7.55109 7.07902 7.36032 7.21967 7.21967C7.36032 7.07902 7.55109 7 7.75 7H10.25C10.4489 7 10.6397 7.07902 10.7803 7.21967C10.921 7.36032 11 7.55109 11 7.75V10.25ZM17 15H15V13H17V11H15V9H17V7H15V9H13V11H15V13H13V15H11V13H9V15H7V17H9V15H11V17H13V15H15V17H17V15ZM3 18.5V15H4.75V18.5C4.75 18.914 5.086 19.25 5.5 19.25H9V21H5.5C4.83696 21 4.20107 20.7366 3.73223 20.2678C3.26339 19.7989 3 19.163 3 18.5ZM15 3H18.5C19.163 3 19.7989 3.26339 20.2678 3.73223C20.7366 4.20107 21 4.83696 21 5.5V9H19.25V5.5C19.25 5.30109 19.171 5.11032 19.0303 4.96967C18.8897 4.82902 18.6989 4.75 18.5 4.75H15V3ZM21 18.5V15H19.25V18.5C19.25 18.6989 19.171 18.8897 19.0303 19.0303C18.8897 19.171 18.6989 19.25 18.5 19.25H15V21H18.5C19.163 21 19.7989 20.7366 20.2678 20.2678C20.7366 19.7989 21 19.163 21 18.5Z"/>
</svg>
