<svg width="16" height="16" viewBox="0 0 16 16" fill="context-fill" xmlns="http://www.w3.org/2000/svg">
  <path d="M15.5 11.5C15.5 7.35786 12.1421 4 8 4C3.85786 4 0.5 7.35786 0.5 11.5V12.7461H1.67188V11.5C1.67188 8.00507 4.50507 5.17188 8 5.17188C11.4949 5.17188 14.3281 8.00507 14.3281 11.5V12.7461H15.5V11.5Z"/>
  <path d="M13.25 11.5C13.25 8.6005 10.8995 6.24999 7.99999 6.24999C5.1005 6.24999 2.74999 8.6005 2.74999 11.5L2.74989 12.7461H3.92177L3.92187 11.5C3.92187 9.24771 5.74771 7.42187 7.99999 7.42187C10.2523 7.42187 12.0781 9.24771 12.0781 11.5L12.0782 12.7461H13.2501L13.25 11.5Z"/>
  <path d="M8 8.5C9.65686 8.5 11 9.84315 11 11.5L11.0002 12.7461H9.82836L9.82813 11.5C9.82813 10.4904 9.00965 9.67188 8 9.67188C6.99036 9.67188 6.17188 10.4904 6.17188 11.5L6.17164 12.7461H4.99977V11.5C4.99977 9.84315 6.34315 8.5 8 8.5Z"/>
</svg>
