<svg width="16" height="16" viewBox="0 0 16 16" fill="none" xmlns="http://www.w3.org/2000/svg">
  <path fill-rule="evenodd" clip-rule="evenodd" d="M0.825958 10.1991C0.191356 9.56445 0.191356 8.53556 0.825958 7.90095L7.89702 0.829887C8.53163 0.195285 9.56052 0.195285 10.1951 0.829887L11.3198 1.95455C11.5751 2.2099 11.6412 2.59873 11.4846 2.92409C11.0031 3.9241 12.0507 4.97168 13.0507 4.4902C13.376 4.33354 13.7649 4.39962 14.0202 4.65497L15.1449 5.77963C15.7795 6.41424 15.7795 7.44313 15.1449 8.07773L8.0738 15.1488C7.4392 15.7834 6.41031 15.7834 5.7757 15.1488L4.65104 14.0241C4.39569 13.7688 4.32961 13.38 4.48627 13.0546C4.96775 12.0546 3.92017 11.007 2.92016 11.4885C2.5948 11.6451 2.20597 11.5791 1.95062 11.3237L0.825958 10.1991ZM1.70984 8.78484C1.56339 8.93128 1.56339 9.16872 1.70984 9.31517L2.64555 10.2509C4.53493 9.58573 6.38902 11.4398 5.72388 13.3292L6.65959 14.2649C6.80603 14.4114 7.04347 14.4114 7.18992 14.2649L14.261 7.19385C14.4074 7.0474 14.4074 6.80996 14.261 6.66352L13.3253 5.7278C11.4359 6.39295 9.5818 4.53886 10.247 2.64948L9.31124 1.71377C9.16479 1.56732 8.92735 1.56732 8.78091 1.71377L1.70984 8.78484Z" fill="context-fill"/>
  <path d="M8.87637 9.78539L9.76025 8.90151L10.6441 9.78539L9.76025 10.6693L8.87637 9.78539Z" fill="context-fill"/>
  <path d="M7.1086 8.01763L7.99249 7.13374L8.87637 8.01763L7.99249 8.90151L7.1086 8.01763Z" fill="context-fill"/>
  <path d="M5.34084 6.24986L6.22472 5.36598L7.1086 6.24986L6.22472 7.13374L5.34084 6.24986Z" fill="context-fill"/>
</svg>
