<svg width="18" height="18" viewBox="0 0 18 18" fill="none" xmlns="http://www.w3.org/2000/svg">
<rect x="0.5" y="0.5" width="17" height="17" rx="1.5" stroke="context-stroke"/>
<path d="M14.625 11.625C14.625 8.5184 12.1066 6 9 6C5.8934 6 3.375 8.5184 3.375 11.625V12.5596H4.25391V11.625C4.25391 9.0038 6.3788 6.87891 9 6.87891C11.6212 6.87891 13.7461 9.0038 13.7461 11.625V12.5596H14.625V11.625Z" fill="context-fill"/>
<path d="M12.9375 11.625C12.9375 9.45037 11.1746 7.6875 9 7.6875C6.82537 7.6875 5.0625 9.45037 5.0625 11.625L5.06242 12.5596H5.94132L5.9414 11.625C5.9414 9.93578 7.31078 8.5664 9 8.5664C10.6892 8.5664 12.0586 9.93578 12.0586 11.625L12.0587 12.5596H12.9376L12.9375 11.625Z" fill="context-fill"/>
<path d="M9 9.375C10.2426 9.375 11.25 10.3824 11.25 11.625L11.2502 12.5596H10.3713L10.3711 11.625C10.3711 10.8678 9.75724 10.2539 9 10.2539C8.24277 10.2539 7.62891 10.8678 7.62891 11.625L7.62873 12.5596H6.74982V11.625C6.74982 10.3824 7.75736 9.375 9 9.375Z" fill="context-fill"/>
</svg>
