<svg width="16" height="16" viewBox="0 0 16 16" fill="none" xmlns="http://www.w3.org/2000/svg">
  <path d="M10 14C9.62059 14.0061 9.25109 13.8787 8.95594 13.6403C8.6608 13.4018 8.45874 13.0672 8.385 12.695L8.028 11.028C7.97202 10.7692 7.84264 10.5321 7.65536 10.345C7.46807 10.1579 7.23081 10.0287 6.972 9.973L5.305 9.616C4.524 9.447 4 8.798 4 8C4 7.202 4.524 6.553 5.305 6.385L6.972 6.028C7.23078 5.97185 7.46794 5.84243 7.65519 5.65519C7.84243 5.46794 7.97185 5.23078 8.028 4.972L8.386 3.305C8.553 2.524 9.202 2 10 2C10.798 2 11.447 2.524 11.615 3.305L11.972 4.972C12.086 5.5 12.5 5.914 13.028 6.027L14.695 6.384C15.476 6.553 16 7.202 16 8C16 8.798 15.476 9.447 14.695 9.615L13.028 9.972C12.769 10.028 12.5316 10.1575 12.3443 10.345C12.157 10.5324 12.0277 10.7699 11.972 11.029L11.614 12.695C11.5407 13.0672 11.3388 13.4019 11.0438 13.6404C10.7488 13.8789 10.3793 14.0062 10 14ZM10 3.25C9.902 3.25 9.669 3.28 9.608 3.566L9.25 5.234C9.14333 5.72828 8.89643 6.18132 8.53888 6.53888C8.18132 6.89643 7.72828 7.14333 7.234 7.25L5.567 7.607C5.281 7.669 5.25 7.902 5.25 8C5.25 8.098 5.281 8.331 5.567 8.393L7.234 8.75C7.72828 8.85667 8.18132 9.10357 8.53888 9.46112C8.89643 9.81868 9.14333 10.2717 9.25 10.766L9.608 12.434C9.669 12.72 9.902 12.75 10 12.75C10.098 12.75 10.331 12.72 10.392 12.434L10.75 10.767C10.8565 10.2725 11.1033 9.81928 11.4609 9.46154C11.8185 9.10379 12.2716 8.85674 12.766 8.75L14.433 8.393C14.719 8.331 14.75 8.098 14.75 8C14.75 7.902 14.719 7.669 14.433 7.607L12.766 7.25C12.2717 7.14333 11.8187 6.89643 11.4611 6.53888C11.1036 6.18132 10.8567 5.72828 10.75 5.234L10.392 3.566C10.331 3.28 10.098 3.25 10 3.25Z" fill="context-fill"/>
  <path d="M2.44399 12.151L2.62599 11.302C2.71199 10.9 3.28599 10.9 3.37299 11.302L3.55499 12.151C3.57035 12.2229 3.60618 12.2888 3.65817 12.3408C3.71016 12.3928 3.77609 12.4286 3.84799 12.444L4.69699 12.626C5.09899 12.712 5.09899 13.286 4.69699 13.373L3.84799 13.555C3.77609 13.5704 3.71016 13.6062 3.65817 13.6582C3.60618 13.7102 3.57035 13.7761 3.55499 13.848L3.37299 14.697C3.28699 15.099 2.71299 15.099 2.62599 14.697L2.44399 13.848C2.42863 13.7761 2.39279 13.7102 2.3408 13.6582C2.28881 13.6062 2.22289 13.5704 2.15099 13.555L1.30199 13.373C0.899988 13.287 0.899988 12.713 1.30199 12.626L2.15099 12.444C2.22294 12.4288 2.28893 12.393 2.34094 12.341C2.39295 12.2889 2.42875 12.223 2.44399 12.151Z" fill="context-fill"/>
  <path d="M2.44399 2.151L2.62599 1.302C2.71199 0.900004 3.28599 0.900004 3.37299 1.302L3.55499 2.151C3.57035 2.22291 3.60618 2.28883 3.65817 2.34082C3.71016 2.39281 3.77609 2.42864 3.84799 2.444L4.69699 2.626C5.09899 2.712 5.09899 3.286 4.69699 3.373L3.84899 3.556C3.77703 3.57125 3.71105 3.60704 3.65904 3.65905C3.60703 3.71106 3.57123 3.77705 3.55599 3.849L3.37299 4.698C3.28699 5.1 2.71299 5.1 2.62599 4.698L2.44399 3.849C2.42875 3.77705 2.39295 3.71106 2.34094 3.65905C2.28893 3.60704 2.22294 3.57125 2.15099 3.556L1.30199 3.373C0.899988 3.287 0.899988 2.713 1.30199 2.626L2.15099 2.444C2.22294 2.42876 2.28893 2.39296 2.34094 2.34095C2.39295 2.28894 2.42875 2.22296 2.44399 2.151Z" fill="context-fill"/>
</svg>
