<svg width="18" height="18" viewBox="0 0 18 18" fill="none" xmlns="http://www.w3.org/2000/svg">
<rect x="0.5" y="0.5" width="17" height="17" rx="1.5" stroke="context-stroke"/>
<path d="M9 9C8.45 9 7.97917 8.80417 7.5875 8.4125C7.19583 8.02083 7 7.55 7 7C7 6.45 7.19583 5.97917 7.5875 5.5875C7.97917 5.19583 8.45 5 9 5C9.55 5 10.0208 5.19583 10.4125 5.5875C10.8042 5.97917 11 6.45 11 7C11 7.55 10.8042 8.02083 10.4125 8.4125C10.0208 8.80417 9.55 9 9 9ZM5 12V11.6C5 11.3167 5.07292 11.0563 5.21875 10.8187C5.36458 10.5812 5.55833 10.4 5.8 10.275C6.31667 10.0167 6.84167 9.82292 7.375 9.69375C7.90833 9.56458 8.45 9.5 9 9.5C9.55 9.5 10.0917 9.56458 10.625 9.69375C11.1583 9.82292 11.6833 10.0167 12.2 10.275C12.4417 10.4 12.6354 10.5812 12.7812 10.8187C12.9271 11.0563 13 11.3167 13 11.6V12C13 12.275 12.9021 12.5104 12.7063 12.7063C12.5104 12.9021 12.275 13 12 13H6C5.725 13 5.48958 12.9021 5.29375 12.7063C5.09792 12.5104 5 12.275 5 12ZM6 12H12V11.6C12 11.5083 11.9771 11.425 11.9313 11.35C11.8854 11.275 11.825 11.2167 11.75 11.175C11.3 10.95 10.8458 10.7813 10.3875 10.6688C9.92917 10.5563 9.46667 10.5 9 10.5C8.53333 10.5 8.07083 10.5563 7.6125 10.6688C7.15417 10.7813 6.7 10.95 6.25 11.175C6.175 11.2167 6.11458 11.275 6.06875 11.35C6.02292 11.425 6 11.5083 6 11.6V12ZM9 8C9.275 8 9.51042 7.90208 9.70625 7.70625C9.90208 7.51042 10 7.275 10 7C10 6.725 9.90208 6.48958 9.70625 6.29375C9.51042 6.09792 9.275 6 9 6C8.725 6 8.48958 6.09792 8.29375 6.29375C8.09792 6.48958 8 6.725 8 7C8 7.275 8.09792 7.51042 8.29375 7.70625C8.48958 7.90208 8.725 8 9 8Z" fill="context-fill"/>
</svg>
