<svg width="16" height="16" viewBox="0 0 16 16" fill="none" xmlns="http://www.w3.org/2000/svg">
<rect width="18.6565" height="1.22295" rx="0.611475" transform="matrix(-0.707107 -0.707107 -0.707107 0.707107 14.9464 14.1921)" fill="context-fill"/>
<path fill-rule="evenodd" clip-rule="evenodd" d="M3.9498 1.68761C5.14904 0.918177 6.55296 0.5 8 0.5C9.98912 0.5 11.8968 1.29018 13.3033 2.6967C14.7098 4.10322 15.5 6.01088 15.5 8C15.5 9.44704 15.0818 10.851 14.3124 12.0502L13.3945 11.1323C13.8373 10.3656 14.1137 9.51118 14.202 8.625H11.973C11.9515 8.95148 11.9131 9.27556 11.8582 9.596L9.63719 7.375H10.719C10.573 5.44665 9.75105 3.63171 8.398 2.25H7.602C7.08087 2.78217 6.63852 3.37861 6.28323 4.02104L5.37173 3.10954C5.55124 2.81339 5.74752 2.52639 5.96 2.25H5.552C5.31395 2.35224 5.08325 2.46884 4.86107 2.59888L3.9498 1.68761ZM13.0242 4.30006C12.3637 3.39877 11.4738 2.69088 10.447 2.25H10.04C11.1778 3.72922 11.8509 5.51288 11.974 7.375H14.203C14.0918 6.26313 13.6848 5.20135 13.0242 4.30006Z" fill="context-fill"/>
<path fill-rule="evenodd" clip-rule="evenodd" d="M3.08673 2.33343C2.9529 2.44948 2.82278 2.57061 2.6967 2.6967C1.29018 4.10322 0.5 6.01088 0.5 8C0.5 9.98912 1.29018 11.8968 2.6967 13.3033C4.10322 14.7098 6.01088 15.5 8 15.5C9.98912 15.5 11.8968 14.7098 13.3033 13.3033C13.4294 13.1772 13.5505 13.0471 13.6666 12.9133L12.7733 12.02C12.1456 12.7694 11.3496 13.3627 10.448 13.75H10.039C10.7209 12.8639 11.2359 11.8685 11.5656 10.8123L10.5448 9.79147C10.2135 11.2778 9.47326 12.6509 8.397 13.75H7.602C6.24895 12.3683 5.427 10.5534 5.281 8.625H9.37831L8.12831 7.375H5.281C5.34173 6.57283 5.51944 5.79028 5.80369 5.05038L4.8504 4.09709C4.38292 5.12591 4.10162 6.23576 4.026 7.375H1.797C1.90802 6.2632 2.31487 5.20145 2.97523 4.30016C3.26721 3.90165 3.60404 3.54094 3.97771 3.22441L3.08673 2.33343ZM2.97497 11.7C3.63536 12.6014 4.52524 13.3092 5.552 13.75H5.96C4.82222 12.2708 4.14912 10.4871 4.026 8.625H1.797C1.90781 9.73686 2.31458 10.7987 2.97497 11.7Z" fill="context-fill"/>
</svg>
