<svg viewBox="0 0 16 16" width="16" height="16" xmlns="http://www.w3.org/2000/svg">
  <path d="m 8,0.5 a 7.5,7.5 0 1 0 0,15 7.5,7.5 0 0 0 0,-15 z m 2.447,1.75 a 6.255,6.255 0 0 1 3.756,5.125 H 11.974 A 9.426,9.426 0 0 0 10.04,2.25 Z m -2.049,0 a 8.211,8.211 0 0 1 2.321,5.125 H 5.281 A 8.211,8.211 0 0 1 7.602,2.25 Z m -2.846,0 H 5.96 A 9.434,9.434 0 0 0 4.026,7.375 H 1.797 A 6.254,6.254 0 0 1 5.552,2.25 Z m 0,11.5 A 6.252,6.252 0 0 1 1.797,8.625 H 4.026 A 9.426,9.426 0 0 0 5.96,13.75 Z m 2.05,0 A 8.211,8.211 0 0 1 5.281,8.625 h 5.437 A 8.211,8.211 0 0 1 8.397,13.75 Z m 2.846,0 h -0.409 a 9.418,9.418 0 0 0 1.934,-5.125 h 2.229 a 6.253,6.253 0 0 1 -3.754,5.125 z" fill="context-fill" />
</svg>
