<svg width="16" height="16" viewBox="0 0 16 16" fill="context-fill" xmlns="http://www.w3.org/2000/svg">
  <path fill-rule="evenodd" clip-rule="evenodd" d="M13.5527 3.74072C13.6057 3.44502 13.3069 3.21007 13.0321 3.33143L2.46222 7.99865L5.04818 8.60316L10.1001 5.29184C10.8373 4.80861 11.6593 5.7727 11.0656 6.42426L7.88895 9.91029L11.9093 12.8968L13.5527 3.74072ZM12.5272 2.18794C13.7181 1.66208 15.013 2.68016 14.783 3.96155L13.104 13.3162C12.9564 14.1382 11.9962 14.5186 11.3258 14.0205L7.03263 10.8313C6.49819 10.4343 6.42353 9.66259 6.87195 9.17049L7.47872 8.50462L5.68862 9.67797C5.4311 9.84676 5.11564 9.90263 4.81582 9.83254L1.81371 9.13075C0.762034 8.8849 0.627375 7.4424 1.61537 7.00614L12.5272 2.18794Z"/>
</svg>
