<svg width="32" height="32" viewBox="0 0 32 32" fill="none" xmlns="http://www.w3.org/2000/svg">
<path fill-rule="evenodd" clip-rule="evenodd" d="M31 16C31 24.2843 24.2843 31 16 31C7.71573 31 1 24.2843 1 16C1 7.71573 7.71573 1 16 1C24.2843 1 31 7.71573 31 16ZM16 3.69531C22.7957 3.69531 28.3047 9.20431 28.3047 16C28.3047 22.7957 22.7957 28.3047 16 28.3047V26.4297C21.7602 26.4297 26.4297 21.7602 26.4297 16C26.4297 10.2398 21.7602 5.57031 16 5.57031V3.69531ZM16 8.29492C20.2554 8.29492 23.7051 11.7446 23.7051 16C23.7051 20.2554 20.2554 23.7051 16 23.7051V21.8301C19.2199 21.8301 21.8301 19.2199 21.8301 16C21.8301 12.7801 19.2199 10.1699 16 10.1699V8.29492ZM19.1934 16C19.1934 14.2364 17.7636 12.8066 16 12.8066V19.1934C17.7636 19.1934 19.1934 17.7636 19.1934 16Z" fill="context-fill"/>
</svg>
